<?xml version="1.0" encoding="UTF-8" standalone="no"?><!DOCTYPE svg PUBLIC "-//W3C//DTD SVG 1.1//EN" "http://www.w3.org/Graphics/SVG/1.1/DTD/svg11.dtd"><svg width="100%" height="100%" viewBox="0 0 3267 3267" version="1.1" xmlns="http://www.w3.org/2000/svg" xmlns:xlink="http://www.w3.org/1999/xlink" xml:space="preserve" xmlns:serif="http://www.serif.com/" style="fill-rule:evenodd;clip-rule:evenodd;stroke-linecap:round;stroke-linejoin:round;stroke-miterlimit:1.5;"><g><path d="M1633.17,4.167l159.186,814.499l-159.186,814.5l-159.185,-814.5l159.185,-814.499Z" style="fill:none;stroke:#fff;stroke-width:8.33px;"/><path d="M1350.29,28.915l298.203,774.483l-15.331,829.768l-298.203,-774.483l15.331,-829.768Z" style="fill:none;stroke:#fff;stroke-width:8.33px;"/><path d="M1076.02,102.407l428.161,710.935l128.989,819.824l-428.161,-710.934l-128.989,-819.825Z" style="fill:none;stroke:#fff;stroke-width:8.33px;"/><path d="M818.666,222.411l545.109,625.785l269.391,784.97l-545.108,-625.784l-269.392,-784.971Z" style="fill:none;stroke:#fff;stroke-width:8.33px;"/><path d="M586.066,385.28l645.493,521.621l401.607,726.265l-645.493,-521.62l-401.607,-726.266Z" style="fill:none;stroke:#fff;stroke-width:8.33px;"/><path d="M385.28,586.066l726.266,401.607l521.62,645.493l-726.265,-401.607l-521.621,-645.493Z" style="fill:none;stroke:#fff;stroke-width:8.33px;"/><path d="M222.411,818.666l784.971,269.392l625.784,545.108l-784.97,-269.391l-625.785,-545.109Z" style="fill:none;stroke:#fff;stroke-width:8.33px;"/><path d="M102.407,1076.02l819.825,128.989l710.934,428.161l-819.824,-128.989l-710.935,-428.161Z" style="fill:none;stroke:#fff;stroke-width:8.33px;"/><path d="M28.915,1350.29l829.768,-15.331l774.483,298.203l-829.768,15.331l-774.483,-298.203Z" style="fill:none;stroke:#fff;stroke-width:8.33px;"/><path d="M4.167,1633.17l814.499,-159.185l814.5,159.185l-814.5,159.186l-814.499,-159.186Z" style="fill:none;stroke:#fff;stroke-width:8.33px;"/><path d="M28.915,1916.04l774.483,-298.204l829.768,15.331l-774.483,298.204l-829.768,-15.331Z" style="fill:none;stroke:#fff;stroke-width:8.33px;"/><path d="M102.407,2190.32l710.935,-428.161l819.824,-128.99l-710.934,428.161l-819.825,128.99Z" style="fill:none;stroke:#fff;stroke-width:8.33px;"/><path d="M222.411,2447.67l625.785,-545.109l784.97,-269.391l-625.784,545.109l-784.971,269.391Z" style="fill:none;stroke:#fff;stroke-width:8.33px;"/><path d="M385.28,2680.27l521.621,-645.494l726.265,-401.607l-521.62,645.494l-726.266,401.607Z" style="fill:none;stroke:#fff;stroke-width:8.33px;"/><path d="M586.066,2881.05l401.607,-726.265l645.493,-521.621l-401.607,726.266l-645.493,521.62Z" style="fill:none;stroke:#fff;stroke-width:8.33px;"/><path d="M818.666,3043.92l269.392,-784.97l545.108,-625.785l-269.391,784.971l-545.109,625.784Z" style="fill:none;stroke:#fff;stroke-width:8.33px;"/><path d="M1076.02,3163.93l128.989,-819.824l428.161,-710.935l-128.989,819.825l-428.161,710.934Z" style="fill:none;stroke:#fff;stroke-width:8.33px;"/><path d="M1350.29,3237.42l-15.331,-829.768l298.203,-774.484l15.331,829.768l-298.203,774.484Z" style="fill:none;stroke:#fff;stroke-width:8.33px;"/><path d="M1633.17,3262.17l-159.185,-814.5l159.185,-814.5l159.186,814.5l-159.186,814.5Z" style="fill:none;stroke:#fff;stroke-width:8.33px;"/><path d="M1916.04,3237.42l-298.204,-774.484l15.331,-829.768l298.204,774.484l-15.331,829.768Z" style="fill:none;stroke:#fff;stroke-width:8.33px;"/><path d="M2190.32,3163.93l-428.161,-710.934l-128.99,-819.825l428.161,710.935l128.99,819.824Z" style="fill:none;stroke:#fff;stroke-width:8.33px;"/><path d="M2447.67,3043.92l-545.109,-625.784l-269.391,-784.971l545.109,625.785l269.391,784.97Z" style="fill:none;stroke:#fff;stroke-width:8.33px;"/><path d="M2680.27,2881.05l-645.494,-521.62l-401.607,-726.266l645.494,521.621l401.607,726.265Z" style="fill:none;stroke:#fff;stroke-width:8.33px;"/><path d="M2881.05,2680.27l-726.265,-401.607l-521.621,-645.494l726.266,401.607l521.62,645.494Z" style="fill:none;stroke:#fff;stroke-width:8.33px;"/><path d="M3043.92,2447.67l-784.97,-269.391l-625.785,-545.109l784.971,269.391l625.784,545.109Z" style="fill:none;stroke:#fff;stroke-width:8.33px;"/><path d="M3163.93,2190.32l-819.824,-128.99l-710.935,-428.161l819.825,128.99l710.934,428.161Z" style="fill:none;stroke:#fff;stroke-width:8.33px;"/><path d="M3237.42,1916.04l-829.768,15.331l-774.484,-298.204l829.768,-15.331l774.484,298.204Z" style="fill:none;stroke:#fff;stroke-width:8.33px;"/><path d="M3262.17,1633.17l-814.5,159.186l-814.5,-159.186l814.5,-159.185l814.5,159.185Z" style="fill:none;stroke:#fff;stroke-width:8.33px;"/><path d="M3237.42,1350.29l-774.484,298.203l-829.768,-15.331l774.484,-298.203l829.768,15.331Z" style="fill:none;stroke:#fff;stroke-width:8.33px;"/><path d="M3163.93,1076.02l-710.934,428.161l-819.825,128.989l710.935,-428.161l819.824,-128.989Z" style="fill:none;stroke:#fff;stroke-width:8.33px;"/><path d="M3043.92,818.666l-625.784,545.109l-784.971,269.391l625.785,-545.108l784.97,-269.392Z" style="fill:none;stroke:#fff;stroke-width:8.33px;"/><path d="M2881.05,586.066l-521.62,645.493l-726.266,401.607l521.621,-645.493l726.265,-401.607Z" style="fill:none;stroke:#fff;stroke-width:8.33px;"/><path d="M2680.27,385.28l-401.607,726.266l-645.494,521.62l401.607,-726.265l645.494,-521.621Z" style="fill:none;stroke:#fff;stroke-width:8.33px;"/><path d="M2447.67,222.411l-269.391,784.971l-545.109,625.784l269.391,-784.97l545.109,-625.785Z" style="fill:none;stroke:#fff;stroke-width:8.33px;"/><path d="M2190.32,102.407l-128.99,819.825l-428.161,710.934l128.99,-819.824l428.161,-710.935Z" style="fill:none;stroke:#fff;stroke-width:8.33px;"/><path d="M1916.04,28.915l15.331,829.768l-298.204,774.483l-15.331,-829.768l298.204,-774.483Z" style="fill:none;stroke:#fff;stroke-width:8.33px;"/></g></svg>