<?xml version="1.0" encoding="UTF-8" standalone="no"?><!DOCTYPE svg PUBLIC "-//W3C//DTD SVG 1.1//EN" "http://www.w3.org/Graphics/SVG/1.1/DTD/svg11.dtd"><svg width="100%" height="100%" viewBox="0 0 4032 4032" version="1.1" xmlns="http://www.w3.org/2000/svg" xmlns:xlink="http://www.w3.org/1999/xlink" xml:space="preserve" xmlns:serif="http://www.serif.com/" style="fill-rule:evenodd;clip-rule:evenodd;stroke-linecap:round;stroke-linejoin:round;stroke-miterlimit:1.5;"><g><circle cx="1317.92" cy="1288.76" r="1006.25" style="fill:none;stroke:#fff;stroke-width:8.33px;"/><path d="M1027.53,430.03c546.928,-96.438 1069.26,269.302 1165.7,816.23c96.438,546.927 -269.302,1069.26 -816.23,1165.7c-546.927,96.438 -1069.26,-269.302 -1165.7,-816.229c-96.438,-546.928 269.302,-1069.26 816.229,-1165.7Z" style="fill:none;stroke:#fff;stroke-width:8.33px;"/><path d="M767.176,625.739c521.872,-189.945 1099.78,79.536 1289.72,601.408c189.946,521.872 -79.536,1099.78 -601.408,1289.72c-521.872,189.946 -1099.78,-79.536 -1289.72,-601.408c-189.945,-521.872 79.536,-1099.78 601.408,-1289.72Z" style="fill:none;stroke:#fff;stroke-width:8.33px;"/><path d="M544.758,863.686c480.96,-277.682 1096.88,-112.647 1374.56,368.313c277.682,480.96 112.647,1096.88 -368.313,1374.56c-480.96,277.682 -1096.88,112.647 -1374.56,-368.313c-277.682,-480.96 -112.647,-1096.88 368.313,-1374.56Z" style="fill:none;stroke:#fff;stroke-width:8.33px;"/><path d="M367.038,1136.64c425.434,-356.981 1060.66,-301.406 1417.64,124.027c356.982,425.434 301.407,1060.66 -124.027,1417.64c-425.434,356.981 -1060.66,301.406 -1417.64,-124.028c-356.982,-425.433 -301.407,-1060.65 124.027,-1417.64Z" style="fill:none;stroke:#fff;stroke-width:8.33px;"/><path d="M239.416,1436.31c356.981,-425.434 992.203,-481.008 1417.64,-124.027c425.434,356.982 481.009,992.204 124.027,1417.64c-356.981,425.434 -992.203,481.009 -1417.64,124.028c-425.434,-356.982 -481.009,-992.204 -124.027,-1417.64Z" style="fill:none;stroke:#fff;stroke-width:8.33px;"/><path d="M165.769,1753.59c277.683,-480.959 893.604,-645.995 1374.56,-368.313c480.96,277.682 645.996,893.604 368.313,1374.56c-277.682,480.96 -893.603,645.996 -1374.56,368.313c-480.959,-277.682 -645.995,-893.603 -368.313,-1374.56Z" style="fill:none;stroke:#fff;stroke-width:8.33px;"/><path d="M148.336,2078.83c189.946,-521.872 767.852,-791.354 1289.72,-601.408c521.872,189.946 791.354,767.851 601.408,1289.72c-189.946,521.872 -767.852,791.354 -1289.72,601.408c-521.872,-189.946 -791.354,-767.851 -601.408,-1289.72Z" style="fill:none;stroke:#fff;stroke-width:8.33px;"/><path d="M187.646,2402.16c96.438,-546.927 618.769,-912.667 1165.7,-816.229c546.927,96.438 912.667,618.769 816.229,1165.7c-96.438,546.927 -618.769,912.667 -1165.7,816.229c-546.928,-96.438 -912.668,-618.769 -816.23,-1165.7Z" style="fill:none;stroke:#fff;stroke-width:8.33px;"/><path d="M282.505,2713.76c0,-555.364 450.886,-1006.25 1006.25,-1006.25c555.365,0 1006.25,450.886 1006.25,1006.25c0,555.365 -450.885,1006.25 -1006.25,1006.25c-555.364,0 -1006.25,-450.885 -1006.25,-1006.25Z" style="fill:none;stroke:#fff;stroke-width:8.33px;"/><path d="M430.03,3004.14c-96.438,-546.927 269.302,-1069.26 816.23,-1165.7c546.927,-96.438 1069.26,269.302 1165.7,816.229c96.438,546.928 -269.302,1069.26 -816.229,1165.7c-546.928,96.438 -1069.26,-269.302 -1165.7,-816.23Z" style="fill:none;stroke:#fff;stroke-width:8.33px;"/><path d="M625.739,3264.5c-189.945,-521.871 79.536,-1099.78 601.408,-1289.72c521.872,-189.946 1099.78,79.536 1289.72,601.408c189.946,521.872 -79.536,1099.78 -601.408,1289.72c-521.872,189.946 -1099.78,-79.536 -1289.72,-601.408Z" style="fill:none;stroke:#fff;stroke-width:8.33px;"/><path d="M863.686,3486.92c-277.682,-480.96 -112.647,-1096.88 368.313,-1374.56c480.96,-277.683 1096.88,-112.647 1374.56,368.313c277.682,480.959 112.647,1096.88 -368.313,1374.56c-480.96,277.682 -1096.88,112.646 -1374.56,-368.313Z" style="fill:none;stroke:#fff;stroke-width:8.33px;"/><path d="M1136.64,3664.64c-356.981,-425.434 -301.406,-1060.66 124.027,-1417.64c425.434,-356.982 1060.66,-301.407 1417.64,124.027c356.981,425.434 301.406,1060.66 -124.028,1417.64c-425.433,356.981 -1060.65,301.407 -1417.64,-124.027Z" style="fill:none;stroke:#fff;stroke-width:8.33px;"/><path d="M1436.31,3792.26c-425.434,-356.981 -481.008,-992.203 -124.027,-1417.64c356.982,-425.434 992.204,-481.009 1417.64,-124.027c425.434,356.981 481.009,992.203 124.028,1417.64c-356.982,425.434 -992.204,481.008 -1417.64,124.027Z" style="fill:none;stroke:#fff;stroke-width:8.33px;"/><path d="M1753.59,3865.91c-480.959,-277.682 -645.995,-893.603 -368.313,-1374.56c277.682,-480.959 893.604,-645.995 1374.56,-368.313c480.96,277.683 645.996,893.604 368.313,1374.56c-277.682,480.96 -893.603,645.996 -1374.56,368.313Z" style="fill:none;stroke:#fff;stroke-width:8.33px;"/><path d="M2078.83,3883.34c-521.872,-189.945 -791.354,-767.851 -601.408,-1289.72c189.946,-521.872 767.851,-791.354 1289.72,-601.408c521.872,189.946 791.354,767.852 601.408,1289.72c-189.946,521.871 -767.851,791.353 -1289.72,601.407Z" style="fill:none;stroke:#fff;stroke-width:8.33px;"/><path d="M2402.16,3844.03c-546.927,-96.438 -912.667,-618.769 -816.229,-1165.7c96.438,-546.927 618.769,-912.667 1165.7,-816.229c546.927,96.438 912.667,618.769 816.229,1165.7c-96.438,546.927 -618.769,912.667 -1165.7,816.229Z" style="fill:none;stroke:#fff;stroke-width:8.33px;"/><circle cx="2713.76" cy="2742.92" r="1006.25" style="fill:none;stroke:#fff;stroke-width:8.33px;"/><path d="M3004.14,3601.65c-546.927,96.438 -1069.26,-269.303 -1165.7,-816.23c-96.438,-546.927 269.302,-1069.26 816.229,-1165.7c546.928,-96.438 1069.26,269.302 1165.7,816.229c96.438,546.928 -269.302,1069.26 -816.23,1165.7Z" style="fill:none;stroke:#fff;stroke-width:8.33px;"/><path d="M3264.5,3405.94c-521.871,189.946 -1099.78,-79.536 -1289.72,-601.408c-189.946,-521.871 79.536,-1099.78 601.408,-1289.72c521.872,-189.946 1099.78,79.536 1289.72,601.408c189.946,521.872 -79.536,1099.78 -601.408,1289.72Z" style="fill:none;stroke:#fff;stroke-width:8.33px;"/><path d="M3486.92,3167.99c-480.96,277.682 -1096.88,112.646 -1374.56,-368.313c-277.683,-480.96 -112.647,-1096.88 368.313,-1374.56c480.959,-277.683 1096.88,-112.647 1374.56,368.313c277.682,480.959 112.646,1096.88 -368.313,1374.56Z" style="fill:none;stroke:#fff;stroke-width:8.33px;"/><path d="M3664.64,2895.04c-425.434,356.981 -1060.66,301.406 -1417.64,-124.028c-356.982,-425.434 -301.407,-1060.65 124.027,-1417.64c425.434,-356.981 1060.66,-301.407 1417.64,124.027c356.981,425.434 301.407,1060.66 -124.027,1417.64Z" style="fill:none;stroke:#fff;stroke-width:8.33px;"/><path d="M3792.26,2595.37c-356.981,425.434 -992.203,481.009 -1417.64,124.028c-425.434,-356.982 -481.009,-992.204 -124.027,-1417.64c356.981,-425.434 992.203,-481.008 1417.64,-124.027c425.434,356.982 481.008,992.204 124.027,1417.64Z" style="fill:none;stroke:#fff;stroke-width:8.33px;"/><path d="M3865.91,2278.09c-277.682,480.96 -893.603,645.996 -1374.56,368.314c-480.959,-277.683 -645.995,-893.604 -368.313,-1374.56c277.683,-480.959 893.604,-645.995 1374.56,-368.313c480.96,277.683 645.996,893.604 368.313,1374.56Z" style="fill:none;stroke:#fff;stroke-width:8.33px;"/><path d="M3883.34,1952.85c-189.945,521.872 -767.851,791.354 -1289.72,601.408c-521.872,-189.946 -791.354,-767.851 -601.408,-1289.72c189.946,-521.872 767.852,-791.354 1289.72,-601.408c521.871,189.946 791.353,767.851 601.407,1289.72Z" style="fill:none;stroke:#fff;stroke-width:8.33px;"/><path d="M3844.03,1629.52c-96.438,546.927 -618.769,912.667 -1165.7,816.229c-546.927,-96.438 -912.667,-618.769 -816.229,-1165.7c96.438,-546.927 618.769,-912.667 1165.7,-816.229c546.927,96.438 912.667,618.769 816.229,1165.7Z" style="fill:none;stroke:#fff;stroke-width:8.33px;"/><path d="M3749.17,1317.92c-0,555.364 -450.886,1006.25 -1006.25,1006.25c-555.365,-0 -1006.25,-450.886 -1006.25,-1006.25c-0,-555.365 450.885,-1006.25 1006.25,-1006.25c555.364,-0 1006.25,450.885 1006.25,1006.25Z" style="fill:none;stroke:#fff;stroke-width:8.33px;"/><path d="M3601.65,1027.53c96.438,546.928 -269.303,1069.26 -816.23,1165.7c-546.927,96.438 -1069.26,-269.302 -1165.7,-816.23c-96.438,-546.927 269.302,-1069.26 816.229,-1165.7c546.928,-96.438 1069.26,269.302 1165.7,816.229Z" style="fill:none;stroke:#fff;stroke-width:8.33px;"/><path d="M3405.94,767.176c189.946,521.872 -79.536,1099.78 -601.408,1289.72c-521.871,189.946 -1099.78,-79.536 -1289.72,-601.408c-189.946,-521.872 79.536,-1099.78 601.408,-1289.72c521.872,-189.945 1099.78,79.536 1289.72,601.408Z" style="fill:none;stroke:#fff;stroke-width:8.33px;"/><path d="M3167.99,544.758c277.682,480.96 112.646,1096.88 -368.313,1374.56c-480.96,277.682 -1096.88,112.647 -1374.56,-368.313c-277.683,-480.96 -112.647,-1096.88 368.313,-1374.56c480.959,-277.682 1096.88,-112.647 1374.56,368.313Z" style="fill:none;stroke:#fff;stroke-width:8.33px;"/><path d="M2895.04,367.038c356.981,425.434 301.406,1060.66 -124.028,1417.64c-425.434,356.982 -1060.65,301.407 -1417.64,-124.027c-356.981,-425.434 -301.407,-1060.66 124.027,-1417.64c425.434,-356.982 1060.66,-301.407 1417.64,124.027Z" style="fill:none;stroke:#fff;stroke-width:8.33px;"/><path d="M2595.37,239.416c425.434,356.981 481.009,992.203 124.028,1417.64c-356.982,425.434 -992.204,481.009 -1417.64,124.027c-425.434,-356.981 -481.008,-992.203 -124.027,-1417.64c356.982,-425.434 992.204,-481.009 1417.64,-124.027Z" style="fill:none;stroke:#fff;stroke-width:8.33px;"/><path d="M2278.09,165.769c480.96,277.683 645.996,893.604 368.314,1374.56c-277.683,480.96 -893.604,645.996 -1374.56,368.313c-480.959,-277.682 -645.995,-893.603 -368.313,-1374.56c277.683,-480.959 893.604,-645.995 1374.56,-368.313Z" style="fill:none;stroke:#fff;stroke-width:8.33px;"/><path d="M1952.85,148.336c521.872,189.946 791.354,767.852 601.408,1289.72c-189.946,521.872 -767.851,791.354 -1289.72,601.408c-521.872,-189.946 -791.354,-767.852 -601.408,-1289.72c189.946,-521.872 767.851,-791.354 1289.72,-601.408Z" style="fill:none;stroke:#fff;stroke-width:8.33px;"/><path d="M1629.52,187.646c546.927,96.438 912.667,618.769 816.229,1165.7c-96.438,546.927 -618.769,912.667 -1165.7,816.229c-546.927,-96.438 -912.667,-618.769 -816.229,-1165.7c96.438,-546.928 618.769,-912.668 1165.7,-816.23Z" style="fill:none;stroke:#fff;stroke-width:8.33px;"/></g></svg>