<?xml version="1.0" encoding="UTF-8" standalone="no"?><!DOCTYPE svg PUBLIC "-//W3C//DTD SVG 1.1//EN" "http://www.w3.org/Graphics/SVG/1.1/DTD/svg11.dtd"><svg width="100%" height="100%" viewBox="0 0 3223 3273" version="1.1" xmlns="http://www.w3.org/2000/svg" xmlns:xlink="http://www.w3.org/1999/xlink" xml:space="preserve" xmlns:serif="http://www.serif.com/" style="fill-rule:evenodd;clip-rule:evenodd;stroke-linecap:round;stroke-linejoin:round;stroke-miterlimit:1.5;"><g><path d="M1399.96,816.965c141.156,-269.792 208.01,-539.588 211.342,-809.415c0.011,-1.153 0.024,-2.268 0.038,-3.383c-0.011,1.115 -0.024,2.23 -0.038,3.383c-2.809,270.842 66.458,541.722 213.089,812.602l-1.722,3.188c-145.438,269.791 -214.154,539.587 -211.367,809.414c0.014,1.153 0.027,2.268 0.038,3.383c-0.014,-1.115 -0.027,-2.23 -0.038,-3.383c-3.334,-270.842 -70.701,-541.722 -213.013,-812.602l1.671,-3.187Z" style="fill:none;stroke:#fff;stroke-width:8.33px;"/><path d="M1132.54,938.663c40.369,-301.799 10.916,-578.19 -78.24,-832.884c-0.383,-1.087 -0.752,-2.14 -1.121,-3.192c0.371,1.051 0.74,2.104 1.121,3.192c89.994,255.469 247.731,486.322 478.165,690.715l-0.528,3.584c-44.393,303.264 -16.689,580.292 78.216,832.894c0.408,1.078 0.801,2.122 1.193,3.165c-0.394,-1.043 -0.788,-2.086 -1.193,-3.165c-95.766,-253.369 -251.717,-484.872 -478.093,-690.742l0.48,-3.567Z" style="fill:none;stroke:#fff;stroke-width:8.33px;"/><path d="M922.864,1144.49c-65.287,-297.405 -187.496,-547.054 -358.385,-755.895c-0.732,-0.891 -1.439,-1.753 -2.145,-2.617c0.708,0.862 1.415,1.724 2.145,2.617c171.942,209.283 399.122,372.264 685.566,485.518l0.73,3.548c62.007,300.158 182.789,551.004 358.365,755.913c0.752,0.873 1.478,1.72 2.204,2.566c-0.727,-0.845 -1.454,-1.691 -2.204,-2.566c-176.648,-205.335 -402.372,-369.538 -685.508,-485.568l-0.768,-3.516Z" style="fill:none;stroke:#fff;stroke-width:8.33px;"/><path d="M796.23,1409.61c-163.069,-257.14 -363.292,-449.935 -595.303,-587.734c-0.993,-0.587 -1.952,-1.155 -2.911,-1.725c0.96,0.568 1.919,1.136 2.911,1.725c233.151,137.854 502.374,213.306 810.279,221.76l1.899,3.085c160.927,260.849 360.22,455.257 595.29,587.757c1.006,0.564 1.978,1.111 2.949,1.658c-0.973,-0.545 -1.945,-1.092 -2.949,-1.658c-236.223,-132.534 -504.495,-209.633 -810.24,-221.827l-1.925,-3.041Z" style="fill:none;stroke:#fff;stroke-width:8.33px;"/><path d="M767.911,1702.06c-241.182,-185.86 -495.27,-298.548 -760.419,-348.684c-1.134,-0.212 -2.23,-0.418 -3.325,-0.625c1.096,0.205 2.192,0.411 3.325,0.625c266.24,49.798 545.032,28.62 837.259,-68.745l2.84,2.249c240.438,190.077 494.203,304.599 760.415,348.71c1.137,0.186 2.238,0.367 3.338,0.549c-1.101,-0.179 -2.201,-0.36 -3.338,-0.549c-267.307,-43.748 -545.77,-24.443 -837.247,68.669l-2.848,-2.199Z" style="fill:none;stroke:#fff;stroke-width:8.33px;"/><path d="M841.322,1986.55c-290.204,-92.163 -567.511,-111.151 -833.817,-67.577c-1.137,0.188 -2.238,0.369 -3.338,0.549c1.1,-0.182 2.2,-0.363 3.338,-0.549c267.216,-44.265 521.952,-159.518 763.254,-350.959l3.439,1.142c290.947,96.38 568.577,117.202 833.821,67.603c1.133,-0.214 2.229,-0.42 3.325,-0.626c-1.096,0.208 -2.192,0.414 -3.325,0.626c-266.149,50.314 -521.215,163.695 -763.268,350.883l-3.429,-1.092Z" style="fill:none;stroke:#fff;stroke-width:8.33px;"/><path d="M1007.61,2228.78c-304.224,12.651 -571.302,89.653 -806.645,221.681c-1.004,0.566 -1.976,1.112 -2.949,1.658c0.972,-0.548 1.944,-1.094 2.949,-1.658c235.961,-132.989 435.916,-328.416 597.19,-590.842l3.621,-0.103c306.365,-8.942 574.374,-84.331 806.658,-221.658c0.991,-0.588 1.95,-1.157 2.91,-1.725c-0.959,0.57 -1.918,1.139 -2.91,1.725c-232.89,138.309 -433.796,332.09 -597.228,590.776l-3.596,0.146Z" style="fill:none;stroke:#fff;stroke-width:8.33px;"/><path d="M1246.72,2399.53c-281.55,115.939 -506.184,279.642 -682.178,484.2c-0.75,0.875 -1.477,1.721 -2.204,2.567c0.725,-0.847 1.452,-1.693 2.204,-2.567c176.246,-205.672 297.302,-457.702 359.094,-759.461l3.368,-1.335c284.831,-113.186 510.892,-275.692 682.199,-484.183c0.73,-0.892 1.437,-1.755 2.145,-2.617c-0.706,0.864 -1.413,1.726 -2.145,2.617c-171.54,209.62 -294.053,460.429 -359.154,759.411l-3.329,1.368Z" style="fill:none;stroke:#fff;stroke-width:8.33px;"/><path d="M1529.8,2478.2c-224.917,205.243 -380.015,435.904 -475.432,688.318c-0.406,1.08 -0.799,2.123 -1.194,3.166c0.393,-1.044 0.786,-2.087 1.194,-3.166c95.273,-253.547 122.829,-531.782 77.687,-836.477l2.708,-2.406c228.942,-203.778 385.789,-433.802 475.457,-688.309c0.381,-1.088 0.751,-2.141 1.121,-3.193c-0.368,1.053 -0.737,2.105 -1.121,3.193c-89.501,255.649 -118.843,533.233 -77.76,836.451l-2.66,2.423Z" style="fill:none;stroke:#fff;stroke-width:8.33px;"/><path d="M1822.72,2455.31c-141.156,269.792 -208.009,539.588 -211.341,809.415c-0.012,1.153 -0.025,2.268 -0.039,3.383c0.012,-1.115 0.024,-2.23 0.039,-3.383c2.809,-270.842 -66.459,-541.722 -213.09,-812.602l1.722,-3.188c145.438,-269.791 214.154,-539.587 211.368,-809.414c-0.015,-1.153 -0.027,-2.268 -0.039,-3.384c0.014,1.116 0.027,2.231 0.039,3.384c3.333,270.842 70.7,541.722 213.012,812.602l-1.671,3.187Z" style="fill:none;stroke:#fff;stroke-width:8.33px;"/><path d="M2090.15,2333.61c-40.369,301.799 -10.915,578.19 78.24,832.884c0.383,1.087 0.753,2.14 1.121,3.192c-0.37,-1.051 -0.74,-2.104 -1.121,-3.192c-89.994,-255.469 -247.731,-486.322 -478.165,-690.715l0.528,-3.584c44.393,-303.264 16.689,-580.292 -78.215,-832.894c-0.408,-1.078 -0.802,-2.122 -1.194,-3.166c0.395,1.044 0.788,2.087 1.194,3.166c95.766,253.369 251.716,484.872 478.092,690.742l-0.48,3.567Z" style="fill:none;stroke:#fff;stroke-width:8.33px;"/><path d="M2299.83,2127.79c65.287,297.405 187.496,547.054 358.385,755.895c0.732,0.891 1.439,1.753 2.145,2.617c-0.708,-0.862 -1.415,-1.724 -2.145,-2.617c-171.943,-209.283 -399.123,-372.264 -685.567,-485.518l-0.73,-3.548c-62.006,-300.158 -182.789,-551.004 -358.365,-755.913c-0.752,-0.874 -1.478,-1.72 -2.204,-2.567c0.728,0.846 1.454,1.692 2.204,2.567c176.648,205.335 402.372,369.538 685.508,485.568l0.769,3.516Z" style="fill:none;stroke:#fff;stroke-width:8.33px;"/><path d="M2426.46,1862.66c163.068,257.14 363.292,449.935 595.303,587.734c0.992,0.586 1.952,1.155 2.91,1.725c-0.96,-0.568 -1.919,-1.136 -2.91,-1.725c-233.152,-137.854 -502.375,-213.306 -810.279,-221.76l-1.9,-3.085c-160.927,-260.849 -360.219,-455.257 -595.29,-587.757c-1.005,-0.564 -1.977,-1.111 -2.949,-1.659c0.973,0.546 1.945,1.092 2.949,1.659c236.224,132.534 504.496,209.633 810.241,221.827l1.925,3.041Z" style="fill:none;stroke:#fff;stroke-width:8.33px;"/><path d="M2454.78,1570.22c241.181,185.86 495.269,298.548 760.419,348.684c1.133,0.212 2.229,0.418 3.325,0.625c-1.097,-0.205 -2.193,-0.411 -3.325,-0.625c-266.24,-49.798 -545.033,-28.62 -837.26,68.745l-2.84,-2.249c-240.438,-190.077 -494.203,-304.599 -760.414,-348.71c-1.138,-0.186 -2.239,-0.367 -3.339,-0.55c1.101,0.18 2.201,0.361 3.339,0.55c267.306,43.748 545.769,24.443 837.246,-68.669l2.849,2.199Z" style="fill:none;stroke:#fff;stroke-width:8.33px;"/><path d="M2381.37,1285.72c290.204,92.163 567.511,111.151 833.817,67.577c1.138,-0.188 2.238,-0.369 3.339,-0.549c-1.101,0.182 -2.201,0.363 -3.339,0.549c-267.215,44.265 -521.952,159.518 -763.254,350.959l-3.438,-1.142c-290.948,-96.38 -568.578,-117.202 -833.822,-67.603c-1.133,0.214 -2.229,0.42 -3.325,0.625c1.096,-0.207 2.192,-0.413 3.325,-0.625c266.149,-50.314 521.216,-163.695 763.268,-350.883l3.429,1.092Z" style="fill:none;stroke:#fff;stroke-width:8.33px;"/><path d="M2215.08,1043.49c304.224,-12.651 571.301,-89.653 806.644,-221.681c1.004,-0.566 1.977,-1.112 2.949,-1.658c-0.971,0.548 -1.943,1.094 -2.949,1.658c-235.961,132.989 -435.916,328.416 -597.189,590.842l-3.622,0.103c-306.365,8.942 -574.373,84.331 -806.657,221.658c-0.991,0.588 -1.951,1.157 -2.911,1.724c0.959,-0.569 1.918,-1.138 2.911,-1.724c232.889,-138.309 433.795,-332.09 597.228,-590.776l3.596,-0.146Z" style="fill:none;stroke:#fff;stroke-width:8.33px;"/><path d="M1975.97,872.742c281.55,-115.939 506.185,-279.642 682.179,-484.2c0.75,-0.875 1.476,-1.721 2.204,-2.567c-0.726,0.847 -1.452,1.693 -2.204,2.567c-176.246,205.672 -297.302,457.702 -359.095,759.461l-3.368,1.335c-284.83,113.186 -510.892,275.692 -682.199,484.183c-0.73,0.892 -1.437,1.755 -2.145,2.616c0.706,-0.863 1.413,-1.725 2.145,-2.616c171.541,-209.62 294.053,-460.429 359.154,-759.411l3.329,-1.368Z" style="fill:none;stroke:#fff;stroke-width:8.33px;"/><path d="M1692.89,794.071c224.917,-205.243 380.015,-435.904 475.432,-688.319c0.405,-1.079 0.798,-2.122 1.193,-3.165c-0.392,1.044 -0.786,2.087 -1.193,3.165c-95.274,253.548 -122.829,531.783 -77.688,836.478l-2.708,2.406c-228.941,203.778 -385.789,433.802 -475.457,688.309c-0.381,1.088 -0.75,2.141 -1.121,3.192c0.368,-1.052 0.738,-2.105 1.121,-3.192c89.501,-255.649 118.843,-533.233 77.76,-836.451l2.661,-2.423Z" style="fill:none;stroke:#fff;stroke-width:8.33px;"/></g></svg>