<?xml version="1.0" encoding="UTF-8" standalone="no"?><!DOCTYPE svg PUBLIC "-//W3C//DTD SVG 1.1//EN" "http://www.w3.org/Graphics/SVG/1.1/DTD/svg11.dtd"><svg width="100%" height="100%" viewBox="0 0 4114 4051" version="1.1" xmlns="http://www.w3.org/2000/svg" xmlns:xlink="http://www.w3.org/1999/xlink" xml:space="preserve" xmlns:serif="http://www.serif.com/" style="fill-rule:evenodd;clip-rule:evenodd;stroke-linecap:round;stroke-linejoin:round;stroke-miterlimit:1.5;"><g><g><path d="M1845.13,1143.32c141.155,-269.792 208.009,-539.588 211.341,-809.415c0.012,-1.153 0.024,-2.268 0.038,-3.383c-0.011,1.115 -0.024,2.23 -0.038,3.383c-2.809,270.842 66.459,541.722 213.089,812.602l-1.721,3.187c-145.439,269.792 -214.155,539.588 -211.368,809.415c0.014,1.153 0.027,2.268 0.038,3.383c-0.014,-1.115 -0.026,-2.23 -0.038,-3.383c-3.334,-270.842 -70.7,-541.722 -213.013,-812.602l1.672,-3.187Z" style="fill:none;stroke:#fff;stroke-width:8.33px;"/><path d="M1445.08,1071.82c51.55,-385.393 13.938,-738.34 -99.912,-1063.58c-0.489,-1.388 -0.961,-2.732 -1.431,-4.076c0.473,1.343 0.945,2.687 1.431,4.076c114.921,326.231 316.348,621.026 610.61,882.033l-0.674,4.577c-56.69,387.264 -21.312,741.024 99.88,1063.59c0.52,1.377 1.022,2.709 1.523,4.042c-0.503,-1.332 -1.006,-2.664 -1.523,-4.042c-122.292,-323.548 -321.439,-619.174 -610.518,-882.067l0.614,-4.555Z" style="fill:none;stroke:#fff;stroke-width:8.33px;"/><path d="M1015.62,1673.22c-208.235,-328.364 -463.918,-574.561 -760.193,-750.528c-1.267,-0.749 -2.492,-1.475 -3.717,-2.203c1.226,0.725 2.451,1.451 3.717,2.203c297.732,176.037 641.525,272.389 1034.71,283.184l2.426,3.94c205.501,333.1 459.995,581.356 760.176,750.557c1.284,0.72 2.526,1.418 3.766,2.117c-1.242,-0.696 -2.483,-1.394 -3.766,-2.117c-301.653,-169.244 -644.233,-267.698 -1034.66,-283.27l-2.458,-3.883Z" style="fill:none;stroke:#fff;stroke-width:8.33px;"/><path d="M1073.2,2409.97c-370.587,-117.69 -724.703,-141.938 -1064.77,-86.295c-1.453,0.241 -2.858,0.472 -4.263,0.702c1.405,-0.233 2.81,-0.465 4.263,-0.702c341.23,-56.526 666.525,-203.702 974.664,-448.17l4.391,1.459c371.535,123.075 726.065,149.665 1064.78,86.328c1.447,-0.274 2.847,-0.537 4.246,-0.799c-1.399,0.265 -2.799,0.529 -4.246,0.799c-339.868,64.251 -665.584,209.037 -974.681,448.073l-4.379,-1.395Z" style="fill:none;stroke:#fff;stroke-width:8.33px;"/><path d="M1590.88,2937.33c-359.535,148.052 -646.39,357.099 -871.132,618.316c-0.958,1.118 -1.885,2.198 -2.815,3.278c0.927,-1.082 1.855,-2.162 2.815,-3.278c225.064,-262.64 379.65,-584.479 458.559,-969.82l4.3,-1.705c363.725,-144.537 652.402,-352.055 871.158,-618.295c0.932,-1.139 1.835,-2.24 2.739,-3.341c-0.901,1.103 -1.804,2.204 -2.739,3.341c-219.054,267.682 -375.501,587.961 -458.634,969.757l-4.251,1.747Z" style="fill:none;stroke:#fff;stroke-width:8.33px;"/><path d="M2326.44,3008.56c-180.253,344.519 -265.625,689.045 -269.879,1033.61c-0.015,1.472 -0.032,2.896 -0.05,4.32c0.015,-1.424 0.031,-2.848 0.05,-4.32c3.587,-345.862 -84.867,-691.772 -272.113,-1037.68l2.199,-4.071c185.723,-344.519 273.472,-689.045 269.914,-1033.61c-0.019,-1.472 -0.035,-2.897 -0.05,-4.321c0.018,1.424 0.035,2.849 0.05,4.321c4.257,345.861 90.283,691.771 272.013,1037.68l-2.134,4.07Z" style="fill:none;stroke:#fff;stroke-width:8.33px;"/><path d="M2935.69,2590.32c83.37,379.782 239.429,698.58 457.652,965.267c0.935,1.137 1.838,2.238 2.739,3.341c-0.904,-1.101 -1.807,-2.202 -2.739,-3.341c-219.568,-267.251 -509.674,-475.377 -875.458,-620l-0.932,-4.531c-79.182,-383.297 -233.419,-703.624 -457.627,-965.289c-0.96,-1.116 -1.888,-2.196 -2.815,-3.278c0.929,1.08 1.857,2.16 2.815,3.278c225.577,262.209 513.823,471.895 875.383,620.063l0.982,4.49Z" style="fill:none;stroke:#fff;stroke-width:8.33px;"/><path d="M3133.56,1878.31c307.985,237.34 632.453,381.241 971.044,445.264c1.447,0.27 2.847,0.534 4.246,0.799c-1.4,-0.262 -2.799,-0.525 -4.246,-0.799c-339.984,-63.591 -695.999,-36.547 -1069.17,87.787l-3.627,-2.872c-307.035,-242.727 -631.089,-388.969 -971.037,-445.298c-1.453,-0.237 -2.859,-0.469 -4.264,-0.702c1.406,0.23 2.811,0.461 4.264,0.702c341.346,55.866 696.939,31.213 1069.15,-87.69l3.637,2.809Z" style="fill:none;stroke:#fff;stroke-width:8.33px;"/><path d="M2827.47,1205.69c388.49,-16.155 729.544,-114.485 1030.07,-283.082c1.283,-0.723 2.524,-1.421 3.766,-2.118c-1.24,0.699 -2.482,1.397 -3.766,2.118c-301.318,169.824 -556.658,419.382 -762.602,754.496l-4.624,0.131c-391.224,11.42 -733.467,107.689 -1030.09,283.054c-1.265,0.752 -2.491,1.478 -3.717,2.202c1.225,-0.727 2.45,-1.453 3.717,-2.202c297.397,-176.618 553.95,-424.074 762.651,-754.412l4.592,-0.187Z" style="fill:none;stroke:#fff;stroke-width:8.33px;"/><path d="M2160.64,887.182c287.215,-262.093 485.273,-556.642 607.119,-878.972c0.518,-1.379 1.02,-2.711 1.524,-4.043c-0.501,1.333 -1.003,2.665 -1.524,4.043c-121.662,323.776 -156.851,679.078 -99.206,1068.17l-3.458,3.072c-292.354,260.222 -492.647,553.959 -607.151,878.961c-0.487,1.389 -0.958,2.733 -1.432,4.076c0.471,-1.344 0.942,-2.688 1.432,-4.076c114.291,-326.46 151.761,-680.931 99.298,-1068.14l3.398,-3.094Z" style="fill:none;stroke:#fff;stroke-width:8.33px;"/><path d="M1368.03,1470.84c-65.287,-297.405 -187.496,-547.054 -358.385,-755.895c-0.732,-0.891 -1.439,-1.754 -2.145,-2.617c0.708,0.862 1.415,1.724 2.145,2.617c171.942,209.283 399.123,372.264 685.567,485.518l0.729,3.548c62.007,300.158 182.789,551.004 358.365,755.913c0.752,0.873 1.479,1.72 2.204,2.566c-0.727,-0.845 -1.454,-1.691 -2.204,-2.566c-176.648,-205.335 -402.372,-369.539 -685.507,-485.568l-0.769,-3.516Z" style="fill:none;stroke:#fff;stroke-width:8.33px;"/><path d="M1213.08,2028.41c-241.181,-185.86 -495.27,-298.548 -760.419,-348.684c-1.133,-0.212 -2.229,-0.418 -3.325,-0.625c1.096,0.205 2.192,0.411 3.325,0.625c266.24,49.798 545.033,28.62 837.26,-68.745l2.84,2.249c240.437,190.077 494.202,304.599 760.414,348.71c1.138,0.186 2.238,0.367 3.338,0.549c-1.1,-0.179 -2.201,-0.361 -3.338,-0.549c-267.307,-43.748 -545.769,-24.443 -837.246,68.669l-2.849,-2.199Z" style="fill:none;stroke:#fff;stroke-width:8.33px;"/><path d="M1452.77,2555.14c-304.224,12.651 -571.302,89.653 -806.645,221.681c-1.004,0.566 -1.976,1.112 -2.949,1.658c0.972,-0.548 1.944,-1.094 2.949,-1.658c235.961,-132.989 435.916,-328.416 597.19,-590.843l3.621,-0.102c306.365,-8.943 574.374,-84.331 806.658,-221.658c0.991,-0.588 1.95,-1.157 2.91,-1.725c-0.958,0.57 -1.918,1.139 -2.91,1.725c-232.89,138.309 -433.795,332.09 -597.228,590.776l-3.596,0.146Z" style="fill:none;stroke:#fff;stroke-width:8.33px;"/><path d="M1974.97,2804.55c-224.917,205.243 -380.015,435.903 -475.432,688.318c-0.405,1.08 -0.799,2.123 -1.193,3.166c0.392,-1.044 0.785,-2.087 1.193,-3.166c95.273,-253.547 122.829,-531.782 77.687,-836.477l2.709,-2.406c228.941,-203.778 385.789,-433.802 475.457,-688.309c0.38,-1.089 0.75,-2.141 1.12,-3.193c-0.368,1.053 -0.737,2.105 -1.12,3.193c-89.501,255.648 -118.844,533.233 -77.761,836.451l-2.66,2.423Z" style="fill:none;stroke:#fff;stroke-width:8.33px;"/><path d="M2535.31,2659.96c-40.369,301.799 -10.915,578.19 78.24,832.884c0.384,1.087 0.753,2.14 1.121,3.192c-0.37,-1.052 -0.74,-2.104 -1.121,-3.192c-89.993,-255.469 -247.73,-486.322 -478.165,-690.715l0.528,-3.585c44.393,-303.263 16.69,-580.291 -78.215,-832.893c-0.408,-1.078 -0.801,-2.122 -1.194,-3.166c0.395,1.043 0.788,2.087 1.194,3.166c95.766,253.369 251.716,484.872 478.092,690.742l-0.48,3.567Z" style="fill:none;stroke:#fff;stroke-width:8.33px;"/><path d="M2871.62,2189.01c163.068,257.141 363.292,449.936 595.303,587.735c0.992,0.586 1.952,1.155 2.911,1.725c-0.96,-0.568 -1.92,-1.136 -2.911,-1.725c-233.152,-137.854 -502.375,-213.306 -810.279,-221.76l-1.9,-3.085c-160.927,-260.849 -360.219,-455.257 -595.289,-587.757c-1.006,-0.564 -1.978,-1.111 -2.95,-1.659c0.973,0.546 1.945,1.092 2.95,1.659c236.223,132.534 504.495,209.632 810.24,221.826l1.925,3.041Z" style="fill:none;stroke:#fff;stroke-width:8.33px;"/><path d="M2826.53,1612.07c290.205,92.162 567.511,111.151 833.817,67.577c1.138,-0.188 2.238,-0.37 3.339,-0.549c-1.1,0.182 -2.201,0.363 -3.339,0.549c-267.215,44.265 -521.951,159.518 -763.254,350.959l-3.438,-1.142c-290.948,-96.38 -568.578,-117.202 -833.822,-67.603c-1.132,0.214 -2.228,0.42 -3.325,0.625c1.096,-0.207 2.192,-0.413 3.325,-0.625c266.149,-50.314 521.216,-163.695 763.268,-350.883l3.429,1.092Z" style="fill:none;stroke:#fff;stroke-width:8.33px;"/><path d="M2421.14,1199.09c281.55,-115.939 506.185,-279.642 682.179,-484.2c0.75,-0.875 1.476,-1.722 2.204,-2.567c-0.726,0.847 -1.452,1.693 -2.204,2.567c-176.246,205.672 -297.302,457.702 -359.095,759.461l-3.368,1.335c-284.83,113.186 -510.892,275.692 -682.198,484.183c-0.73,0.892 -1.438,1.755 -2.146,2.616c0.707,-0.863 1.414,-1.725 2.146,-2.616c171.54,-209.62 294.052,-460.429 359.153,-759.411l3.329,-1.368Z" style="fill:none;stroke:#fff;stroke-width:8.33px;"/></g></g></svg>