<?xml version="1.0" encoding="UTF-8" standalone="no"?><!DOCTYPE svg PUBLIC "-//W3C//DTD SVG 1.1//EN" "http://www.w3.org/Graphics/SVG/1.1/DTD/svg11.dtd"><svg width="100%" height="100%" viewBox="0 0 3273 3273" version="1.1" xmlns="http://www.w3.org/2000/svg" xmlns:xlink="http://www.w3.org/1999/xlink" xml:space="preserve" xmlns:serif="http://www.serif.com/" style="fill-rule:evenodd;clip-rule:evenodd;stroke-linecap:round;stroke-linejoin:round;stroke-miterlimit:1.5;"><g><path d="M1424.76,816.965c141.155,-269.792 208.009,-539.588 211.341,-809.415c0.012,-1.153 0.024,-2.268 0.038,-3.383c-0.011,1.115 -0.024,2.23 -0.038,3.383c-2.809,270.842 66.459,541.722 213.089,812.602l-1.721,3.188c-145.439,269.791 -214.155,539.587 -211.368,809.414c0.014,1.153 0.027,2.268 0.038,3.383c-0.014,-1.115 -0.026,-2.23 -0.038,-3.383c-3.334,-270.842 -70.7,-541.722 -213.013,-812.602l1.672,-3.187Z" style="fill:none;stroke:#fff;stroke-width:8.33px;"/><path d="M1285.72,866.115c92.163,-290.204 111.151,-567.51 67.577,-833.817c-0.188,-1.137 -0.369,-2.237 -0.549,-3.338c0.182,1.1 0.363,2.201 0.549,3.338c44.265,267.216 159.518,521.952 350.959,763.255l-1.142,3.438c-96.38,290.948 -117.202,568.578 -67.603,833.821c0.214,1.133 0.42,2.229 0.625,3.325c-0.207,-1.095 -0.413,-2.191 -0.625,-3.325c-50.314,-266.148 -163.695,-521.215 -350.883,-763.267l1.092,-3.43Z" style="fill:none;stroke:#fff;stroke-width:8.33px;"/><path d="M1157.33,938.663c40.369,-301.799 10.915,-578.19 -78.241,-832.884c-0.383,-1.087 -0.752,-2.14 -1.12,-3.192c0.37,1.051 0.74,2.104 1.12,3.192c89.994,255.469 247.731,486.322 478.165,690.715l-0.527,3.584c-44.393,303.264 -16.69,580.292 78.215,832.894c0.408,1.078 0.801,2.122 1.193,3.165c-0.394,-1.043 -0.788,-2.086 -1.193,-3.165c-95.766,-253.369 -251.716,-484.872 -478.092,-690.742l0.48,-3.567Z" style="fill:none;stroke:#fff;stroke-width:8.33px;"/><path d="M1043.49,1032.4c-12.651,-304.224 -89.653,-571.302 -221.681,-806.645c-0.566,-1.004 -1.112,-1.976 -1.658,-2.949c0.548,0.972 1.094,1.944 1.658,2.949c132.989,235.961 328.416,435.916 590.842,597.19l0.103,3.621c8.942,306.365 84.331,574.374 221.658,806.658c0.588,0.991 1.157,1.95 1.724,2.91c-0.569,-0.958 -1.138,-1.918 -1.724,-2.91c-138.309,-232.89 -332.09,-433.795 -590.776,-597.228l-0.146,-3.596Z" style="fill:none;stroke:#fff;stroke-width:8.33px;"/><path d="M947.657,1144.49c-65.287,-297.405 -187.496,-547.054 -358.385,-755.895c-0.732,-0.891 -1.439,-1.753 -2.145,-2.617c0.708,0.862 1.415,1.724 2.145,2.617c171.942,209.283 399.123,372.264 685.567,485.518l0.73,3.548c62.006,300.158 182.788,551.004 358.364,755.913c0.752,0.873 1.479,1.72 2.204,2.566c-0.727,-0.845 -1.454,-1.691 -2.204,-2.566c-176.648,-205.335 -402.372,-369.538 -685.507,-485.568l-0.769,-3.516Z" style="fill:none;stroke:#fff;stroke-width:8.33px;"/><path d="M872.742,1271.51c-115.939,-281.55 -279.642,-506.185 -484.2,-682.179c-0.875,-0.75 -1.721,-1.477 -2.567,-2.204c0.847,0.726 1.693,1.452 2.567,2.204c205.672,176.246 457.702,297.302 759.461,359.095l1.335,3.367c113.186,284.831 275.692,510.892 484.183,682.199c0.892,0.73 1.755,1.438 2.616,2.145c-0.863,-0.706 -1.725,-1.413 -2.616,-2.145c-209.62,-171.54 -460.429,-294.052 -759.411,-359.153l-1.368,-3.329Z" style="fill:none;stroke:#fff;stroke-width:8.33px;"/><path d="M821.023,1409.61c-163.068,-257.14 -363.292,-449.935 -595.303,-587.734c-0.993,-0.587 -1.952,-1.155 -2.911,-1.725c0.96,0.568 1.92,1.136 2.911,1.725c233.152,137.854 502.375,213.306 810.279,221.76l1.899,3.085c160.927,260.849 360.22,455.257 595.29,587.757c1.006,0.564 1.978,1.111 2.949,1.658c-0.972,-0.545 -1.944,-1.092 -2.949,-1.658c-236.223,-132.534 -504.495,-209.633 -810.24,-221.827l-1.925,-3.041Z" style="fill:none;stroke:#fff;stroke-width:8.33px;"/><path d="M794.071,1554.6c-205.243,-224.917 -435.904,-380.015 -688.319,-475.432c-1.079,-0.405 -2.122,-0.799 -3.165,-1.193c1.044,0.392 2.087,0.785 3.165,1.193c253.548,95.273 531.783,122.829 836.478,77.688l2.406,2.708c203.778,228.941 433.802,385.789 688.309,475.457c1.088,0.38 2.141,0.75 3.192,1.12c-1.052,-0.368 -2.105,-0.737 -3.192,-1.12c-255.649,-89.501 -533.233,-118.844 -836.451,-77.761l-2.423,-2.66Z" style="fill:none;stroke:#fff;stroke-width:8.33px;"/><path d="M792.704,1702.06c-241.181,-185.86 -495.27,-298.548 -760.419,-348.684c-1.133,-0.212 -2.229,-0.418 -3.325,-0.625c1.096,0.205 2.192,0.411 3.325,0.625c266.24,49.798 545.033,28.62 837.26,-68.745l2.84,2.249c240.437,190.077 494.202,304.599 760.414,348.71c1.138,0.186 2.238,0.367 3.338,0.549c-1.1,-0.179 -2.201,-0.36 -3.338,-0.549c-267.306,-43.748 -545.769,-24.443 -837.246,68.669l-2.849,-2.199Z" style="fill:none;stroke:#fff;stroke-width:8.33px;"/><path d="M816.965,1847.52c-269.792,-141.155 -539.588,-208.009 -809.415,-211.341c-1.153,-0.012 -2.268,-0.025 -3.383,-0.039c1.115,0.012 2.23,0.025 3.383,0.039c270.842,2.809 541.722,-66.459 812.602,-213.09l3.188,1.722c269.791,145.438 539.587,214.155 809.414,211.368c1.153,-0.014 2.268,-0.027 3.383,-0.039c-1.115,0.014 -2.23,0.027 -3.383,0.039c-270.842,3.334 -541.722,70.7 -812.602,213.012l-3.187,-1.671Z" style="fill:none;stroke:#fff;stroke-width:8.33px;"/><path d="M866.115,1986.55c-290.204,-92.163 -567.51,-111.151 -833.817,-67.577c-1.137,0.188 -2.237,0.369 -3.338,0.549c1.1,-0.182 2.201,-0.363 3.338,-0.549c267.216,-44.265 521.952,-159.518 763.255,-350.959l3.438,1.142c290.948,96.38 568.578,117.202 833.821,67.603c1.133,-0.214 2.229,-0.42 3.325,-0.626c-1.095,0.208 -2.191,0.414 -3.325,0.626c-266.148,50.314 -521.215,163.695 -763.267,350.883l-3.43,-1.092Z" style="fill:none;stroke:#fff;stroke-width:8.33px;"/><path d="M938.663,2114.94c-301.799,-40.369 -578.19,-10.915 -832.884,78.24c-1.087,0.384 -2.14,0.753 -3.192,1.121c1.051,-0.37 2.104,-0.74 3.192,-1.121c255.469,-89.993 486.322,-247.73 690.715,-478.165l3.584,0.528c303.264,44.393 580.292,16.69 832.894,-78.215c1.078,-0.408 2.122,-0.801 3.165,-1.194c-1.043,0.395 -2.086,0.788 -3.165,1.194c-253.369,95.766 -484.872,251.716 -690.742,478.092l-3.567,-0.48Z" style="fill:none;stroke:#fff;stroke-width:8.33px;"/><path d="M1032.4,2228.78c-304.224,12.651 -571.302,89.653 -806.645,221.681c-1.004,0.566 -1.976,1.112 -2.949,1.658c0.972,-0.548 1.944,-1.094 2.949,-1.658c235.961,-132.989 435.916,-328.416 597.19,-590.842l3.621,-0.103c306.365,-8.942 574.374,-84.331 806.658,-221.658c0.991,-0.588 1.95,-1.157 2.91,-1.725c-0.958,0.57 -1.918,1.139 -2.91,1.725c-232.89,138.309 -433.795,332.09 -597.228,590.776l-3.596,0.146Z" style="fill:none;stroke:#fff;stroke-width:8.33px;"/><path d="M1144.49,2324.62c-297.405,65.287 -547.054,187.496 -755.895,358.385c-0.891,0.732 -1.753,1.439 -2.617,2.145c0.862,-0.708 1.724,-1.415 2.617,-2.145c209.283,-171.942 372.264,-399.123 485.518,-685.567l3.548,-0.73c300.158,-62.006 551.004,-182.788 755.913,-358.364c0.873,-0.752 1.72,-1.479 2.566,-2.205c-0.845,0.728 -1.691,1.455 -2.566,2.205c-205.335,176.647 -369.538,402.372 -485.568,685.507l-3.516,0.769Z" style="fill:none;stroke:#fff;stroke-width:8.33px;"/><path d="M1271.51,2399.53c-281.55,115.939 -506.185,279.642 -682.179,484.2c-0.75,0.875 -1.477,1.721 -2.204,2.567c0.726,-0.847 1.452,-1.693 2.204,-2.567c176.246,-205.672 297.302,-457.702 359.095,-759.461l3.367,-1.335c284.831,-113.186 510.892,-275.692 682.199,-484.183c0.73,-0.892 1.438,-1.755 2.145,-2.617c-0.706,0.864 -1.413,1.726 -2.145,2.617c-171.54,209.62 -294.052,460.429 -359.153,759.411l-3.329,1.368Z" style="fill:none;stroke:#fff;stroke-width:8.33px;"/><path d="M1409.61,2451.25c-257.14,163.068 -449.935,363.292 -587.734,595.303c-0.587,0.993 -1.155,1.952 -1.725,2.911c0.568,-0.96 1.136,-1.92 1.725,-2.911c137.854,-233.152 213.306,-502.375 221.76,-810.279l3.085,-1.899c260.849,-160.928 455.257,-360.22 587.757,-595.29c0.564,-1.006 1.111,-1.978 1.658,-2.95c-0.545,0.973 -1.092,1.945 -1.658,2.95c-132.534,236.223 -209.633,504.495 -221.827,810.24l-3.041,1.925Z" style="fill:none;stroke:#fff;stroke-width:8.33px;"/><path d="M1554.6,2478.2c-224.917,205.243 -380.015,435.904 -475.432,688.318c-0.405,1.08 -0.799,2.123 -1.193,3.166c0.392,-1.044 0.785,-2.087 1.193,-3.166c95.273,-253.547 122.829,-531.782 77.688,-836.477l2.708,-2.406c228.941,-203.778 385.789,-433.802 475.457,-688.309c0.38,-1.088 0.75,-2.141 1.12,-3.193c-0.368,1.053 -0.737,2.105 -1.12,3.193c-89.501,255.649 -118.844,533.233 -77.761,836.451l-2.66,2.423Z" style="fill:none;stroke:#fff;stroke-width:8.33px;"/><path d="M1702.06,2479.57c-185.86,241.181 -298.548,495.27 -348.684,760.419c-0.212,1.133 -0.418,2.229 -0.625,3.325c0.205,-1.096 0.411,-2.192 0.625,-3.325c49.798,-266.24 28.62,-545.033 -68.745,-837.26l2.249,-2.84c190.077,-240.437 304.599,-494.202 348.71,-760.414c0.186,-1.138 0.367,-2.238 0.549,-3.339c-0.179,1.101 -0.36,2.202 -0.549,3.339c-43.748,267.306 -24.443,545.769 68.669,837.246l-2.199,2.849Z" style="fill:none;stroke:#fff;stroke-width:8.33px;"/><path d="M1847.52,2455.31c-141.155,269.792 -208.009,539.588 -211.341,809.415c-0.012,1.153 -0.025,2.268 -0.039,3.383c0.012,-1.115 0.025,-2.23 0.039,-3.383c2.809,-270.842 -66.459,-541.722 -213.09,-812.602l1.722,-3.188c145.438,-269.791 214.155,-539.587 211.368,-809.414c-0.014,-1.153 -0.027,-2.268 -0.039,-3.384c0.014,1.116 0.027,2.231 0.039,3.384c3.334,270.842 70.7,541.722 213.012,812.602l-1.671,3.187Z" style="fill:none;stroke:#fff;stroke-width:8.33px;"/><path d="M1986.55,2406.16c-92.163,290.204 -111.151,567.51 -67.577,833.817c0.188,1.137 0.369,2.237 0.549,3.338c-0.182,-1.1 -0.363,-2.201 -0.549,-3.338c-44.265,-267.216 -159.518,-521.952 -350.959,-763.255l1.142,-3.438c96.38,-290.948 117.202,-568.578 67.603,-833.821c-0.214,-1.133 -0.42,-2.229 -0.626,-3.326c0.208,1.096 0.414,2.192 0.626,3.326c50.314,266.148 163.695,521.215 350.883,763.267l-1.092,3.43Z" style="fill:none;stroke:#fff;stroke-width:8.33px;"/><path d="M2114.94,2333.61c-40.369,301.799 -10.915,578.19 78.24,832.884c0.384,1.087 0.753,2.14 1.121,3.192c-0.37,-1.051 -0.74,-2.104 -1.121,-3.192c-89.993,-255.469 -247.73,-486.322 -478.165,-690.715l0.528,-3.584c44.393,-303.264 16.69,-580.292 -78.215,-832.894c-0.408,-1.078 -0.801,-2.122 -1.194,-3.166c0.395,1.044 0.788,2.087 1.194,3.166c95.766,253.369 251.716,484.872 478.092,690.742l-0.48,3.567Z" style="fill:none;stroke:#fff;stroke-width:8.33px;"/><path d="M2228.78,2239.87c12.651,304.224 89.653,571.301 221.681,806.644c0.566,1.005 1.112,1.977 1.658,2.95c-0.548,-0.972 -1.094,-1.944 -1.658,-2.95c-132.989,-235.96 -328.416,-435.915 -590.842,-597.189l-0.103,-3.621c-8.942,-306.366 -84.331,-574.374 -221.658,-806.658c-0.588,-0.991 -1.157,-1.951 -1.725,-2.911c0.57,0.959 1.139,1.919 1.725,2.911c138.309,232.89 332.09,433.795 590.776,597.228l0.146,3.596Z" style="fill:none;stroke:#fff;stroke-width:8.33px;"/><path d="M2324.62,2127.79c65.287,297.405 187.496,547.054 358.385,755.895c0.732,0.891 1.439,1.753 2.145,2.617c-0.708,-0.862 -1.415,-1.724 -2.145,-2.617c-171.942,-209.283 -399.123,-372.264 -685.567,-485.518l-0.73,-3.548c-62.006,-300.158 -182.788,-551.004 -358.364,-755.913c-0.752,-0.874 -1.479,-1.72 -2.205,-2.567c0.728,0.846 1.455,1.692 2.205,2.567c176.647,205.335 402.372,369.538 685.507,485.568l0.769,3.516Z" style="fill:none;stroke:#fff;stroke-width:8.33px;"/><path d="M2399.53,2000.77c115.939,281.55 279.642,506.185 484.2,682.179c0.875,0.75 1.721,1.477 2.567,2.204c-0.847,-0.726 -1.693,-1.452 -2.567,-2.204c-205.672,-176.246 -457.702,-297.302 -759.461,-359.095l-1.335,-3.368c-113.186,-284.83 -275.692,-510.892 -484.183,-682.198c-0.892,-0.73 -1.755,-1.438 -2.617,-2.146c0.864,0.707 1.726,1.414 2.617,2.146c209.62,171.54 460.429,294.052 759.411,359.153l1.368,3.329Z" style="fill:none;stroke:#fff;stroke-width:8.33px;"/><path d="M2451.25,1862.66c163.068,257.14 363.292,449.935 595.303,587.734c0.993,0.586 1.952,1.155 2.911,1.725c-0.96,-0.568 -1.92,-1.136 -2.911,-1.725c-233.152,-137.854 -502.375,-213.306 -810.279,-221.76l-1.899,-3.085c-160.928,-260.849 -360.22,-455.257 -595.29,-587.757c-1.006,-0.564 -1.978,-1.111 -2.95,-1.659c0.973,0.546 1.945,1.092 2.95,1.659c236.223,132.534 504.495,209.633 810.24,221.827l1.925,3.041Z" style="fill:none;stroke:#fff;stroke-width:8.33px;"/><path d="M2478.2,1717.68c205.243,224.917 435.904,380.015 688.318,475.432c1.08,0.405 2.123,0.799 3.166,1.193c-1.044,-0.392 -2.087,-0.785 -3.166,-1.193c-253.547,-95.273 -531.782,-122.829 -836.477,-77.688l-2.406,-2.708c-203.778,-228.941 -433.802,-385.789 -688.309,-475.457c-1.088,-0.38 -2.141,-0.75 -3.193,-1.121c1.053,0.369 2.105,0.738 3.193,1.121c255.649,89.501 533.233,118.844 836.451,77.76l2.423,2.661Z" style="fill:none;stroke:#fff;stroke-width:8.33px;"/><path d="M2479.57,1570.22c241.181,185.86 495.27,298.548 760.419,348.684c1.133,0.212 2.229,0.418 3.325,0.625c-1.096,-0.205 -2.192,-0.411 -3.325,-0.625c-266.24,-49.798 -545.033,-28.62 -837.26,68.745l-2.84,-2.249c-240.437,-190.077 -494.202,-304.599 -760.414,-348.71c-1.138,-0.186 -2.238,-0.367 -3.339,-0.55c1.101,0.18 2.202,0.361 3.339,0.55c267.306,43.748 545.769,24.443 837.246,-68.669l2.849,2.199Z" style="fill:none;stroke:#fff;stroke-width:8.33px;"/><path d="M2455.31,1424.76c269.792,141.155 539.588,208.009 809.415,211.341c1.153,0.012 2.268,0.024 3.383,0.038c-1.115,-0.011 -2.23,-0.024 -3.383,-0.038c-270.842,-2.809 -541.722,66.459 -812.602,213.089l-3.188,-1.721c-269.791,-145.439 -539.587,-214.155 -809.414,-211.368c-1.153,0.014 -2.268,0.027 -3.384,0.038c1.116,-0.014 2.231,-0.026 3.384,-0.038c270.842,-3.334 541.722,-70.7 812.602,-213.013l3.187,1.672Z" style="fill:none;stroke:#fff;stroke-width:8.33px;"/><path d="M2406.16,1285.72c290.204,92.163 567.51,111.151 833.817,67.577c1.137,-0.188 2.237,-0.369 3.338,-0.549c-1.1,0.182 -2.201,0.363 -3.338,0.549c-267.216,44.265 -521.952,159.518 -763.255,350.959l-3.438,-1.142c-290.948,-96.38 -568.578,-117.202 -833.821,-67.603c-1.133,0.214 -2.229,0.42 -3.326,0.625c1.096,-0.207 2.192,-0.413 3.326,-0.625c266.148,-50.314 521.215,-163.695 763.267,-350.883l3.43,1.092Z" style="fill:none;stroke:#fff;stroke-width:8.33px;"/><path d="M2333.61,1157.33c301.799,40.369 578.19,10.915 832.884,-78.241c1.087,-0.383 2.14,-0.752 3.192,-1.12c-1.051,0.37 -2.104,0.74 -3.192,1.12c-255.469,89.994 -486.322,247.731 -690.715,478.165l-3.584,-0.527c-303.264,-44.393 -580.292,-16.69 -832.894,78.215c-1.078,0.408 -2.122,0.801 -3.166,1.193c1.044,-0.394 2.087,-0.788 3.166,-1.193c253.369,-95.766 484.872,-251.716 690.742,-478.092l3.567,0.48Z" style="fill:none;stroke:#fff;stroke-width:8.33px;"/><path d="M2239.87,1043.49c304.224,-12.651 571.301,-89.653 806.644,-221.681c1.005,-0.566 1.977,-1.112 2.95,-1.658c-0.972,0.548 -1.944,1.094 -2.95,1.658c-235.96,132.989 -435.915,328.416 -597.189,590.842l-3.621,0.103c-306.366,8.942 -574.374,84.331 -806.658,221.658c-0.991,0.588 -1.951,1.157 -2.911,1.724c0.959,-0.569 1.919,-1.138 2.911,-1.724c232.89,-138.309 433.795,-332.09 597.228,-590.776l3.596,-0.146Z" style="fill:none;stroke:#fff;stroke-width:8.33px;"/><path d="M2127.79,947.657c297.405,-65.287 547.054,-187.496 755.895,-358.385c0.891,-0.732 1.753,-1.439 2.617,-2.145c-0.862,0.708 -1.724,1.415 -2.617,2.145c-209.283,171.942 -372.264,399.123 -485.518,685.567l-3.548,0.73c-300.158,62.006 -551.004,182.788 -755.913,358.364c-0.874,0.752 -1.72,1.479 -2.567,2.204c0.846,-0.727 1.692,-1.454 2.567,-2.204c205.335,-176.648 369.538,-402.372 485.568,-685.507l3.516,-0.769Z" style="fill:none;stroke:#fff;stroke-width:8.33px;"/><path d="M2000.77,872.742c281.55,-115.939 506.185,-279.642 682.179,-484.2c0.75,-0.875 1.477,-1.721 2.204,-2.567c-0.726,0.847 -1.452,1.693 -2.204,2.567c-176.246,205.672 -297.302,457.702 -359.095,759.461l-3.368,1.335c-284.83,113.186 -510.892,275.692 -682.198,484.183c-0.73,0.892 -1.438,1.755 -2.146,2.616c0.707,-0.863 1.414,-1.725 2.146,-2.616c171.54,-209.62 294.052,-460.429 359.153,-759.411l3.329,-1.368Z" style="fill:none;stroke:#fff;stroke-width:8.33px;"/><path d="M1862.66,821.023c257.14,-163.068 449.935,-363.292 587.734,-595.303c0.586,-0.993 1.155,-1.952 1.725,-2.911c-0.568,0.96 -1.136,1.92 -1.725,2.911c-137.854,233.152 -213.306,502.375 -221.76,810.279l-3.085,1.899c-260.849,160.927 -455.257,360.22 -587.757,595.29c-0.564,1.006 -1.111,1.978 -1.659,2.949c0.546,-0.972 1.092,-1.944 1.659,-2.949c132.534,-236.223 209.633,-504.495 221.827,-810.24l3.041,-1.925Z" style="fill:none;stroke:#fff;stroke-width:8.33px;"/><path d="M1717.68,794.071c224.917,-205.243 380.015,-435.904 475.432,-688.319c0.405,-1.079 0.799,-2.122 1.193,-3.165c-0.392,1.044 -0.785,2.087 -1.193,3.165c-95.273,253.548 -122.829,531.783 -77.688,836.478l-2.708,2.406c-228.941,203.778 -385.789,433.802 -475.457,688.309c-0.38,1.088 -0.75,2.141 -1.121,3.192c0.369,-1.052 0.738,-2.105 1.121,-3.192c89.501,-255.649 118.844,-533.233 77.76,-836.451l2.661,-2.423Z" style="fill:none;stroke:#fff;stroke-width:8.33px;"/><path d="M1570.2,792.809c185.854,-241.146 298.536,-495.2 348.666,-760.315c0.212,-1.133 0.418,-2.229 0.625,-3.324c-0.205,1.096 -0.411,2.192 -0.625,3.324c-49.792,266.205 -28.608,544.963 68.764,837.156l-2.249,2.839c-190.072,240.403 -304.587,494.133 -348.692,760.31c-0.186,1.138 -0.367,2.238 -0.55,3.338c0.18,-1.1 0.361,-2.2 0.55,-3.338c43.742,-267.271 24.431,-545.699 -68.688,-837.141l2.199,-2.849Z" style="fill:none;stroke:#fff;stroke-width:8.33px;"/></g></svg>