<?xml version="1.0" encoding="UTF-8" standalone="no"?><!DOCTYPE svg PUBLIC "-//W3C//DTD SVG 1.1//EN" "http://www.w3.org/Graphics/SVG/1.1/DTD/svg11.dtd"><svg width="100%" height="100%" viewBox="0 0 314 456" version="1.1" xmlns="http://www.w3.org/2000/svg" xmlns:xlink="http://www.w3.org/1999/xlink" xml:space="preserve" xmlns:serif="http://www.serif.com/" style="fill-rule:evenodd;clip-rule:evenodd;stroke-linejoin:round;stroke-miterlimit:2;"><path d="M4.167,4.167c-0,-0 305.971,39.904 305.971,39.904c1.226,0.17 2.139,1.219 2.139,2.457c0,-0 0.823,117.905 1.256,220c0.33,77.942 0.406,146.666 0.406,146.666c0,2.089 -1.555,3.851 -3.628,4.111c-0,-0 -57.277,7.214 -122.268,15.153c-85.128,10.4 -183.482,22.089 -183.482,22.089c-0.906,0.113 -1.816,-0.168 -2.501,-0.772c-0.684,-0.604 -1.076,-1.473 -1.076,-2.386c-0,-0 0.453,-83.821 1.116,-178.889c0.868,-124.508 2.066,-268.293 2.067,-268.333c-0,-0 -0,447.222 -0,447.222l305.63,-38.195l0,-366.666l-305.63,-42.361Z" style="fill:#fff;"/></svg>