<?xml version="1.0" encoding="UTF-8" standalone="no"?><!DOCTYPE svg PUBLIC "-//W3C//DTD SVG 1.1//EN" "http://www.w3.org/Graphics/SVG/1.1/DTD/svg11.dtd"><svg width="100%" height="100%" viewBox="0 0 608 676" version="1.1" xmlns="http://www.w3.org/2000/svg" xmlns:xlink="http://www.w3.org/1999/xlink" xml:space="preserve" xmlns:serif="http://www.serif.com/" style="fill-rule:evenodd;clip-rule:evenodd;stroke-linejoin:round;stroke-miterlimit:2;"><g><path d="M318.086,303.452c-0.004,-0 -4.264,-0.376 -9.733,-0.746c-9.568,-0.647 -22.711,-1.331 -22.711,-1.331l-2.077,0l-0,2.077c-0,0 -0.307,5.626 -0.559,14.052c-0.179,5.967 -0.36,13.329 -0.425,21.077c-0.058,6.965 0.011,14.238 0.071,21.078c0.151,17.175 0.45,31.616 0.45,31.616l-0,2.54l2.54,-0l34.38,-0.604l0,-1.936l-1.936,-87.823l-0,0Zm-0,0c-0,0 -1.606,72.854 -1.893,85.851c0,0 -27.963,-0.52 -27.963,-0.52c0.091,-4.848 0.288,-16.214 0.402,-29.124c0.06,-6.84 0.129,-14.113 0.07,-21.078c-0.065,-7.748 -0.245,-15.11 -0.424,-21.077c-0.164,-5.465 -0.35,-9.752 -0.461,-12.09c4.131,-0.222 13.344,-0.729 20.536,-1.216c5.465,-0.369 9.723,-0.745 9.733,-0.746l-0,0Z" style="fill:#fff;fill-opacity:0.73;"/><path d="M329.274,305.13c-0.005,-0.001 -4.572,-1.362 -10.451,-2.993c-10.289,-2.853 -24.473,-6.568 -24.473,-6.568l-2.078,-0.439l-0.439,2.078c-0,-0 -1.541,5.83 -3.644,14.599c-1.489,6.212 -3.284,13.887 -5.058,21.986c-1.594,7.281 -3.139,14.91 -4.595,22.084c-3.655,18.013 -6.567,33.194 -6.567,33.194l-0.526,2.485l2.485,0.526l37.368,7.27l0.396,-1.876c0,0 17.578,-92.326 17.582,-92.346l-0,0Zm-0,0c-0.005,0.018 -17.836,76.547 -20.89,89.654c0,-0 -30.884,-7.094 -30.884,-7.094c1.139,-4.959 3.875,-16.933 6.881,-30.577c1.574,-7.148 3.252,-14.749 4.744,-22.052c1.658,-8.123 3.127,-15.867 4.281,-22.15c1.069,-5.817 1.847,-10.38 2.255,-12.832c4.445,0.715 14.783,2.365 22.845,3.554c6.033,0.89 10.758,1.496 10.767,1.497l0.001,0Z" style="fill:#fff;fill-opacity:0.73;"/><path d="M341.096,309.467c-0.007,-0.003 -14.519,-7.434 -25.165,-12.706c-6.065,-3.003 -10.859,-5.273 -10.859,-5.273l-1.957,-0.848l-0.88,1.943c-0,-0 -2.927,5.764 -7.124,14.471c-2.975,6.169 -6.607,13.798 -10.325,21.871c-3.342,7.259 -6.722,14.888 -9.904,22.062c-7.991,18.012 -14.564,33.224 -14.564,33.224l-1.065,2.352l2.369,1.027l38.855,16.145l0.771,-1.702l39.848,-92.566l-0,0Zm-0,0l-42.492,89.285c0,0 -24.687,-11.173 -32.572,-14.741c2.295,-4.857 7.947,-16.854 14.286,-30.562c3.293,-7.123 6.8,-14.695 10.053,-21.994c3.617,-8.119 6.957,-15.881 9.632,-22.185c2.513,-5.917 4.417,-10.554 5.411,-12.996c2.022,0.786 5.355,2.071 9.206,3.513c11.125,4.166 26.468,9.678 26.476,9.68l-0,0Z" style="fill:#fff;fill-opacity:0.73;"/><path d="M353.021,316.735c-0.007,-0.005 -14.242,-11.105 -24.712,-19.056c-5.966,-4.532 -10.703,-8.005 -10.703,-8.005l-1.73,-1.192l-1.27,1.674c-0,0 -4.429,5.379 -10.902,13.539c-4.586,5.782 -10.217,12.94 -16.049,20.539c-5.244,6.833 -10.625,14.039 -15.688,20.813c-12.716,17.01 -23.283,31.409 -23.283,31.409l-1.608,2.119l2.19,1.509l38.517,25.731l1.088,-1.435l64.15,-87.645l-0,0Zm-0,0c-0.01,0.013 -57.223,72.742 -66.023,83.929c-0,0 -32.651,-23.201 -32.651,-23.201c3.52,-4.499 12.368,-15.83 22.369,-28.811c5.162,-6.7 10.655,-13.821 15.825,-20.71c5.75,-7.661 11.128,-15.01 15.463,-20.983c4.159,-5.731 7.334,-10.205 8.941,-12.484c1.995,1.276 5.443,3.468 9.46,5.968c11.163,6.946 26.608,16.287 26.616,16.292l-0,0Z" style="fill:#fff;fill-opacity:0.73;"/><path d="M364.408,327.095c-0.004,-0.006 -13.151,-14.889 -22.851,-25.611c-5.528,-6.111 -9.937,-10.835 -9.937,-10.835l-1.429,-1.451l-1.566,1.302c0,0 -5.99,4.629 -14.828,11.692c-6.264,5.006 -13.971,11.21 -22.006,17.824c-7.224,5.947 -14.691,12.248 -21.717,18.17c-17.642,14.87 -32.379,27.493 -32.379,27.493l-2.125,1.767l1.94,1.969l36.049,35.657l1.328,-1.104l89.521,-76.873l0,-0Zm0,-0c0,-0 -79.142,63.697 -90.558,72.884c0,0 -30.784,-32.109 -30.784,-32.109c4.76,-3.85 16.963,-13.738 30.819,-25.1c7.105,-5.827 14.663,-12.019 21.829,-18.036c7.97,-6.692 15.477,-13.137 21.542,-18.382c5.97,-5.163 10.523,-9.179 12.73,-11.136c1.847,1.763 5.209,4.958 9.16,8.642c10.574,9.861 25.257,23.232 25.262,23.237l0,-0Z" style="fill:#fff;fill-opacity:0.73;"/><path d="M374.526,340.567c-0.005,-0.007 -11.15,-18.608 -19.408,-32.057c-4.707,-7.668 -8.484,-13.628 -8.484,-13.628l-1.085,-1.623l-1.744,0.876c-0,0 -7.536,3.48 -18.716,8.848c-7.925,3.804 -17.688,8.531 -27.907,13.606c-9.188,4.563 -18.729,9.433 -27.703,14.009c-22.535,11.49 -41.417,21.292 -41.417,21.292l-2.57,1.29l1.599,2.391l31.2,45.472l1.484,-0.746c0,0 114.732,-59.72 114.751,-59.73l-0,0Zm-0,0c-0.018,0.009 -101.27,49.025 -114.923,55.634c0,0 -26.703,-41.016 -26.703,-41.016c5.939,-2.891 21.514,-10.487 39.254,-19.259c9.03,-4.466 18.634,-9.21 27.782,-13.855c10.172,-5.165 19.795,-10.173 27.579,-14.257c7.881,-4.134 13.861,-7.344 16.61,-8.828c1.575,2.218 4.6,6.461 8.188,11.4c9.275,12.769 22.208,30.175 22.213,30.181l-0,0Z" style="fill:#fff;fill-opacity:0.73;"/><path d="M382.568,357.006c-0.003,-0.008 -8.163,-22.05 -14.253,-38.029c-3.472,-9.111 -6.287,-16.223 -6.287,-16.223l-0.725,-1.718l-1.811,0.445c0,-0 -8.972,1.915 -22.338,4.966c-9.472,2.162 -21.154,4.869 -33.413,7.826c-11.024,2.659 -22.506,5.553 -33.306,8.269c-27.115,6.822 -49.881,12.712 -49.881,12.712l-2.893,0.71l1.159,2.745l23.779,54.634l1.566,-0.384l138.403,-35.953l0,0Zm0,0l-137.714,31.911c0,0 -20.215,-49.401 -20.215,-49.401c6.963,-1.627 25.756,-6.033 47.22,-11.181c10.828,-2.597 22.344,-5.354 33.345,-8.107c12.234,-3.06 23.84,-6.076 33.236,-8.549c9.78,-2.575 17.156,-4.59 20.352,-5.469c1.182,2.611 3.58,7.881 6.453,14.063c7.208,15.508 17.319,36.725 17.323,36.733l0,0Z" style="fill:#fff;fill-opacity:0.73;"/><path d="M387.692,376.073c-0.001,-0.006 -1.297,-8.137 -3.068,-18.492c-3.102,-18.144 -7.581,-43.06 -7.581,-43.06l-0.365,-1.751l-1.788,0.041c-0,0 -10.199,-0.056 -25.437,0.062c-10.801,0.084 -24.13,0.232 -38.146,0.501c-12.604,0.242 -25.761,0.617 -38.135,0.966c-31.07,0.875 -57.195,1.775 -57.195,1.775l-3.051,0.071l0.623,2.987l13.697,62.537l1.586,-0.037l158.86,-5.6l0,-0Zm0,-0c0,-0 -140.678,1.582 -157.342,1.77c0,-0 -11.23,-56.688 -11.23,-56.688c7.738,-0.1 29.392,-0.393 54.19,-0.847c12.377,-0.226 25.538,-0.463 38.139,-0.807c14.014,-0.382 27.335,-0.855 38.128,-1.273c11.533,-0.446 20.173,-0.859 23.687,-1.033c1.428,5.985 6.145,25.719 9.845,40.702c2.518,10.199 4.582,18.17 4.583,18.176l0,-0Z" style="fill:#fff;fill-opacity:0.73;"/><path d="M389.053,397.217c0,-0.006 0.335,-8.827 0.648,-20.082c0.549,-19.722 1.095,-46.855 1.095,-46.855l-0.009,-1.735l-1.705,-0.321c-0,-0 -11.106,-2.401 -27.741,-5.785c-11.792,-2.399 -26.352,-5.318 -41.689,-8.269c-13.791,-2.655 -28.214,-5.302 -41.778,-7.795c-34.056,-6.261 -62.729,-11.361 -62.729,-11.361l-3.027,-0.57l0.017,3.08l0.983,68.51l1.561,0.294c-0,-0 174.346,30.884 174.374,30.889l0,-0Zm0,-0c-0.026,-0.005 -154.745,-30.897 -172.087,-34.359c0,-0 0.237,-62.257 0.237,-62.257c8.176,1.621 32.096,6.347 59.565,11.647c13.541,2.612 27.939,5.394 41.751,7.94c15.359,2.83 29.983,5.41 41.84,7.465c12.94,2.244 22.583,3.832 26.286,4.436c0.199,6.353 0.899,28.36 1.544,45.054c0.434,11.241 0.863,20.053 0.864,20.074l0,-0Z" style="fill:#fff;fill-opacity:0.73;"/><path d="M385.852,419.668c0.002,-0.006 2.27,-9.177 5.054,-20.897c4.88,-20.54 11.396,-48.841 11.396,-48.841l0.345,-1.675l-1.583,-0.646c0,0 -14.895,-6.482 -36.23,-15.508c-10.831,-4.582 -23.316,-9.825 -36.356,-15.201c-14.446,-5.956 -29.575,-12.064 -43.804,-17.807c-35.726,-14.42 -65.839,-26.386 -65.839,-26.386l-2.831,-1.156l-0.616,2.996l-14.176,71.855l1.495,0.61c-0,-0 183.124,72.648 183.145,72.656l0,0Zm0,0c-0.02,-0.008 -162.76,-68.316 -180.172,-75.625c1.912,-8.913 11.454,-53.412 14.037,-65.46c8.221,3.439 33.539,14.015 62.696,26.049c14.183,5.854 29.265,12.079 43.753,17.933c13.077,5.284 25.665,10.276 36.608,14.581c17.505,6.887 30.801,12.001 35.183,13.681c-1.174,6.482 -5.404,29.896 -8.498,47.646c-2.068,11.864 -3.605,21.184 -3.607,21.195l0,0Z" style="fill:#fff;fill-opacity:0.73;"/><path d="M377.39,442.436c0.003,-0.006 4.459,-9.1 10.043,-20.741c9.788,-20.402 23.077,-48.556 23.077,-48.556l0.699,-1.568l-1.434,-0.943c0,-0 -14.817,-10.215 -36.086,-24.581c-10.797,-7.293 -23.251,-15.659 -36.274,-24.295c-14.428,-9.568 -29.561,-19.455 -43.793,-28.753c-35.734,-23.346 -65.887,-42.83 -65.887,-42.83l-2.498,-1.645l-1.219,2.732l-31.422,71.877l1.39,0.915l183.404,118.388l-0,0Zm-0,0c-0,0 -163.05,-109.446 -179.854,-120.726c-0,0 24.071,-52.893 29.874,-65.644c7.84,5.251 33.398,22.352 62.919,41.934c14.167,9.397 29.231,19.389 43.723,28.859c13.082,8.549 25.69,16.681 36.657,23.715c17.734,11.376 31.181,19.864 35.428,22.539c-2.665,6.345 -12.609,30.037 -20.027,47.992c-4.929,11.931 -8.717,21.323 -8.72,21.331l-0,0Z" style="fill:#fff;fill-opacity:0.73;"/><path d="M363.121,464.323c0.004,-0.005 6.835,-8.517 15.459,-19.432c15.116,-19.132 35.762,-45.573 35.762,-45.573l1.052,-1.404l-1.257,-1.224c0,-0 -13.915,-14.107 -33.936,-34.048c-10.163,-10.123 -21.901,-21.745 -34.181,-33.796c-10.158,-9.968 -20.702,-20.213 -30.989,-30.184c-38.083,-36.912 -72.652,-70.077 -72.652,-70.077l-2.071,-2.018l-1.734,2.314l-50.204,67.929l1.239,1.207l173.512,166.306l0,-0Zm0,-0l-169.524,-167.9c0,0 47.28,-62.179 47.28,-62.179c7.882,7.792 37.487,37.038 69.9,68.783c10.236,10.025 20.751,20.299 30.981,30.194c12.366,11.962 24.29,23.394 34.674,33.29c16.922,16.129 29.744,28.184 33.668,31.867c-4.238,5.896 -20.484,28.512 -32.664,45.655c-8.057,11.34 -14.311,20.285 -14.315,20.29l0,-0Z" style="fill:#fff;fill-opacity:0.73;"/><path d="M342.721,483.946c0.005,-0.003 9.302,-7.359 21.085,-16.815c20.653,-16.575 48.95,-39.531 48.95,-39.531l1.391,-1.171l-1.042,-1.491c0,0 -12.079,-17.975 -29.513,-43.465c-8.85,-12.941 -19.082,-27.815 -29.802,-43.263c-8.868,-12.779 -18.089,-25.937 -27.089,-38.751c-33.316,-47.432 -63.612,-90.134 -63.612,-90.134l-1.592,-2.277l-2.126,1.789l-69.767,59.464l1.033,1.478c-0,-0 152.066,214.142 152.084,214.167l-0,0Zm-0,0l-147.822,-214.931c-0,0 54.054,-44.916 65.593,-54.504c6.533,9.483 32.6,47.294 61.213,88.44c8.939,12.856 18.127,26.037 27.08,38.757c10.823,15.376 21.274,30.097 30.384,42.856c14.925,20.901 26.241,36.538 29.628,41.211c-5.829,5.092 -28.715,25.094 -45.909,40.266c-11.328,9.996 -20.163,17.901 -20.167,17.905l-0,0Z" style="fill:#fff;fill-opacity:0.73;"/><path d="M316.138,499.787c0.006,-0.003 11.743,-5.579 26.653,-12.781c26.136,-12.622 62.015,-30.166 62.015,-30.166l1.694,-0.864l-0.776,-1.736c-0,-0 -9.231,-21.604 -22.621,-52.31c-6.798,-15.589 -14.671,-33.521 -22.94,-52.167c-6.841,-15.424 -13.975,-31.327 -20.942,-46.818c-25.792,-57.345 -49.312,-109.042 -49.312,-109.042l-1.091,-2.44l-2.381,1.214l-89.165,46.089l0.763,1.707l118.103,259.314l-0,-0Zm-0,-0l-113.755,-259.197c10.804,-5.428 71.121,-35.731 83.958,-42.18c4.792,10.897 25.028,56.881 47.316,107.022c6.899,15.522 13.995,31.442 20.928,46.825c8.383,18.595 16.498,36.419 23.583,51.88c11.647,25.414 20.501,44.443 23.112,50.043c-7.35,3.904 -36.912,19.613 -59.14,31.549c-14.588,7.834 -25.997,14.055 -26.002,14.058l-0,-0Z" style="fill:#fff;fill-opacity:0.73;"/><path d="M283.653,510.241c0.008,-0.002 14.019,-3.152 31.847,-7.272c31.252,-7.221 74.213,-17.352 74.213,-17.352l1.93,-0.486l-0.448,-1.939c0,-0 -5.328,-24.749 -13.162,-59.987c-3.977,-17.889 -8.594,-38.482 -13.493,-59.91c-5.428,-23.739 -11.215,-48.499 -16.658,-71.785c-13.665,-58.464 -25.333,-107.596 -25.333,-107.596l-0.583,-2.524l-2.512,0.633l-107.281,27.627l0.432,1.868l71.048,298.723l0,-0Zm0,-0c0,-0 -61.132,-272.401 -66.815,-297.722c0,-0 101.327,-24.947 101.327,-24.947c2.417,10.737 12.286,54.53 23.884,105.287c5.327,23.312 10.992,48.1 16.532,71.813c5,21.405 9.887,41.935 14.164,59.756c7.048,29.374 12.45,51.377 14.026,57.776c-8.687,2.331 -44.612,11.98 -71.626,19.354c-17.652,4.818 -31.485,8.681 -31.492,8.683l0,-0Z" style="fill:#fff;fill-opacity:0.73;"/><path d="M245.931,513.694c0.008,-0 15.971,-0.085 36.307,-0.305c35.649,-0.385 84.705,-1.12 84.705,-1.12l2.067,-0.059l-0.057,-2.068c-0,0 -0.275,-21.128 -0.893,-52.682c-0.437,-22.37 -1.017,-49.98 -1.753,-79.012c-0.661,-26.107 -1.482,-53.364 -2.25,-78.998c-1.927,-64.36 -3.721,-118.487 -3.721,-118.487l-0.07,-2.543l-2.543,0.074l-122.87,4.151l0.054,1.936c-0,-0 11.023,329.084 11.024,329.113l-0,-0Zm-0,-0c-0.001,-0.028 -6.518,-300.218 -7.106,-327.275c0,0 99.195,-2.372 116.489,-2.786c0.254,11.388 1.345,59.789 2.764,115.982c0.648,25.638 1.332,52.898 2.111,79.002c0.868,29.029 1.812,56.628 2.609,78.989c0.919,25.794 1.683,44.613 1.93,50.614c-9.721,0.418 -51.287,2.214 -82.533,3.682c-20.315,0.955 -36.256,1.792 -36.264,1.792l-0,-0Z" style="fill:#fff;fill-opacity:0.73;"/><path d="M204.05,508.609c0.009,0.002 17.43,3.578 39.645,8.021c38.945,7.788 92.581,18.299 92.581,18.299l2.085,0.382l0.379,-2.086c0,0 4.341,-22.193 10.62,-55.379c4.451,-23.528 9.902,-52.575 15.519,-83.143c5.051,-27.49 10.202,-56.215 15.05,-83.229c12.174,-67.825 22.248,-124.902 22.248,-124.902l0.454,-2.497l-2.496,-0.456l-134.609,-23.972l-0.344,1.89c0,0 -61.127,347.041 -61.132,347.072l-0,0Zm-0,0l64.554,-344.488c-0,-0 128.111,24.025 128.111,24.025c-2.175,11.646 -11.72,62.795 -22.664,122.26c-4.967,26.992 -10.254,55.693 -15.199,83.201c-5.499,30.59 -10.618,59.697 -14.731,83.287c-4.766,27.339 -8.146,47.271 -9.2,53.511c-10.331,-1.751 -56.369,-9.545 -90.952,-15.274c-22.351,-3.703 -39.91,-6.52 -39.919,-6.522l-0,0Z" style="fill:#fff;fill-opacity:0.73;"/><path d="M159.527,493.626c0.007,0.003 18.217,7.751 41.46,17.511c40.744,17.11 96.901,40.455 96.901,40.455l1.98,0.796l0.822,-1.969c0,0 9.603,-22.249 23.762,-55.557c10.039,-23.614 22.39,-52.777 35.273,-83.489c11.586,-27.619 23.571,-56.504 34.847,-83.668c28.31,-68.201 51.972,-125.626 51.972,-125.626l0.992,-2.375l-2.388,-0.96l-141.146,-56.067l-0.723,1.731c-0,0 -143.739,349.187 -143.752,349.218l0,0Zm0,0c0.013,-0.03 135.333,-319.586 146.525,-346.018c0,0 116.545,47.441 134.806,54.875c-4.834,11.433 -26.609,62.957 -51.793,122.923c-11.389,27.116 -23.502,55.948 -34.996,83.605c-12.782,30.755 -24.835,60.042 -34.57,83.784c-11.357,27.699 -19.525,47.861 -22.009,54.003c-10.43,-4.051 -59.271,-23.015 -95.922,-37.107c-23.529,-9.047 -42.034,-16.062 -42.041,-16.065l0,0Z" style="fill:#fff;fill-opacity:0.73;"/><path d="M114.319,467.671c0.012,0.007 55.891,37.661 96.589,64.884c23.218,15.531 41.502,27.643 41.502,27.643l1.766,1.15l1.222,-1.717c0,-0 15.357,-21.098 38.137,-52.718c16.151,-22.419 36.054,-50.11 56.892,-79.298c18.74,-26.248 38.209,-53.724 56.523,-79.562c45.981,-64.871 84.528,-119.524 84.528,-119.524l1.535,-2.157l-2.218,-1.444l-141.164,-91.127l-1.049,1.475l-234.263,332.395l0,-0Zm0,-0l236.276,-328.731c0,-0 135.206,88.786 135.206,88.786c-7.65,10.655 -42.862,59.715 -83.709,116.869c-18.415,25.767 -37.999,53.161 -56.662,79.463c-20.753,29.249 -40.399,57.124 -56.291,79.727c-18.701,26.597 -32.175,45.913 -36.126,51.584c-5.18,-3.31 -21.023,-13.424 -40.277,-25.622c-41.362,-26.203 -98.405,-62.069 -98.417,-62.076l0,-0Z" style="fill:#fff;fill-opacity:0.73;"/><path d="M70.794,430.069c0.011,0.011 52.66,52.296 91.037,90.168c21.894,21.606 39.155,38.498 39.155,38.498l1.473,1.421l1.532,-1.356c0,-0 21.382,-18.565 53.191,-46.431c22.554,-19.756 50.366,-44.167 79.539,-69.924c26.235,-23.163 53.549,-47.436 79.241,-70.261c64.504,-57.308 118.655,-105.624 118.655,-105.624l2.058,-1.822l-1.978,-1.908l-133.438,-127.803l-1.301,1.151l-329.164,293.891l-0,-0Zm-0,-0l330.345,-289.926c0,-0 111.737,108.568 128.053,124.421c-10.5,9.224 -59.844,52.584 -117.181,103.156c-25.774,22.733 -53.182,46.9 -79.357,70.131c-29.105,25.833 -56.711,50.478 -79.058,70.468c-26.581,23.777 -45.696,40.994 -51.033,45.805c-4.686,-4.452 -19.866,-18.859 -38.384,-36.321c-39.228,-36.99 -93.374,-87.724 -93.385,-87.734l-0,-0Z" style="fill:#fff;fill-opacity:0.73;"/><path d="M31.683,380.662c0.01,0.014 45.92,66.881 79.42,115.372c19.113,27.665 34.202,49.329 34.202,49.329l1.133,1.604l1.727,-0.935c0,0 27.397,-14.52 68.224,-36.371c28.946,-15.492 64.657,-34.644 102.156,-54.885c33.723,-18.203 68.878,-37.313 101.943,-55.282c83.015,-45.114 152.766,-83.195 152.766,-83.195l2.516,-1.362l-1.651,-2.337l-116.93,-164.408l-1.468,0.794l-424.038,231.676l0,-0Zm0,-0l424.351,-227.577c10.203,14.548 99.045,141.214 112.288,160.096c-13.204,7.088 -76.746,41.21 -150.672,81.071c-33.123,17.86 -68.346,36.845 -102.025,55.128c-37.452,20.331 -73.013,39.759 -101.811,55.525c-34.665,18.978 -59.512,32.684 -66.05,36.294c-3.919,-5.468 -17.395,-24.252 -33.901,-47.114c-34.5,-47.785 -82.17,-113.409 -82.18,-113.423l0,-0Z" style="fill:#fff;fill-opacity:0.73;"/><path d="M0,319.913c0.007,0.017 35.363,80.607 61.204,139.097c14.743,33.371 26.408,59.533 26.408,59.533l0.774,1.709l1.808,-0.502c-0,-0 33.065,-8.896 82.394,-22.366c34.976,-9.551 78.133,-21.375 123.488,-33.92c40.788,-11.282 83.343,-23.177 123.367,-34.36c100.487,-28.076 184.965,-51.843 184.965,-51.843l2.858,-0.794l-1.225,-2.702l-90.868,-198.93l-1.558,0.433c-0,-0 -513.569,144.632 -513.615,144.645l0,-0Zm0,-0c0.044,-0.012 482.026,-132.073 513.06,-140.576c0,0 76.506,170.172 87.135,193.812c-15.542,4.265 -92.598,25.419 -182.349,50.209c-40.056,11.064 -82.649,22.823 -123.411,34.196c-45.327,12.647 -88.4,24.778 -123.29,34.636c-42.506,12.01 -72.855,20.685 -80.334,22.825c-2.909,-6.311 -13.516,-29.302 -26.565,-57.383c-26.947,-57.99 -64.238,-137.702 -64.246,-137.719l0,-0Z" style="fill:#fff;fill-opacity:0.73;"/><g><path d="M302.287,321.245l6.704,27.237l-6.704,27.237l-6.705,-27.237l6.705,-27.237Zm-0,2.753l6.027,24.484c-0,0 -6.027,24.485 -6.027,24.485c-0,-0 -6.027,-24.485 -6.027,-24.485l6.027,-24.484Z" style="fill:#fff;fill-opacity:0.44;"/><path d="M302.287,322.084l6.498,26.398l-6.498,26.398l-6.498,-26.398l6.498,-26.398Zm-0,2.753l5.82,23.645c0,0 -5.82,23.645 -5.82,23.645c-0,0 -5.821,-23.645 -5.821,-23.645l5.821,-23.645Z" style="fill:#fff;fill-opacity:0.44;"/><path d="M302.287,322.897l6.298,25.585l-6.298,25.585l-6.298,-25.585l6.298,-25.585Zm-0,2.753l5.62,22.832c0,0 -5.62,22.832 -5.62,22.832c-0,0 -5.62,-22.832 -5.62,-22.832l5.62,-22.832Z" style="fill:#fff;fill-opacity:0.44;"/><path d="M302.287,323.685l6.104,24.797l-6.104,24.797l-6.104,-24.797l6.104,-24.797Zm-0,2.753l5.426,22.044c-0,0 -5.426,22.044 -5.426,22.044c-0,0 -5.426,-22.044 -5.426,-22.044l5.426,-22.044Z" style="fill:#fff;fill-opacity:0.44;"/><path d="M302.287,324.449l5.916,24.033l-5.916,24.033l-5.916,-24.033l5.916,-24.033Zm-0,2.753l5.238,21.28c-0,0 -5.238,21.28 -5.238,21.28c-0,0 -5.238,-21.28 -5.238,-21.28l5.238,-21.28Z" style="fill:#fff;fill-opacity:0.44;"/><path d="M302.287,325.19l5.733,23.292l-5.733,23.293l-5.734,-23.293l5.734,-23.292Zm-0,2.752l5.056,20.54c-0,0 -5.056,20.54 -5.056,20.54c-0,-0 -5.056,-20.54 -5.056,-20.54l5.056,-20.54Z" style="fill:#fff;fill-opacity:0.44;"/><path d="M302.287,325.907l5.557,22.575l-5.557,22.575l-5.557,-22.575l5.557,-22.575Zm-0,2.753l4.879,19.822c0,0 -4.879,19.822 -4.879,19.822c-0,0 -4.879,-19.822 -4.879,-19.822l4.879,-19.822Z" style="fill:#fff;fill-opacity:0.44;"/><path d="M302.287,326.603l5.386,21.879l-5.386,21.88l-5.386,-21.88l5.386,-21.879Zm-0,2.752l4.708,19.127c-0,0 -4.708,19.127 -4.708,19.127c-0,-0 -4.708,-19.127 -4.708,-19.127l4.708,-19.127Z" style="fill:#fff;fill-opacity:0.44;"/><path d="M302.287,327.277l5.22,21.205l-5.22,21.206l-5.22,-21.206l5.22,-21.205Zm-0,2.752l4.542,18.453c-0,0 -4.542,18.453 -4.542,18.453c-0,-0 -4.542,-18.453 -4.542,-18.453l4.542,-18.453Z" style="fill:#fff;fill-opacity:0.44;"/><path d="M302.287,327.93l5.059,20.552l-5.059,20.552l-5.059,-20.552l5.059,-20.552Zm-0,2.753l4.381,17.799c0,0 -4.381,17.8 -4.381,17.8c-0,-0 -4.382,-17.8 -4.382,-17.8l4.382,-17.799Z" style="fill:#fff;fill-opacity:0.44;"/><path d="M302.287,328.563l4.903,19.919l-4.903,19.919l-4.903,-19.919l4.903,-19.919Zm-0,2.753l4.225,17.166c0,0 -4.225,17.166 -4.225,17.166c-0,0 -4.226,-17.166 -4.226,-17.166l4.226,-17.166Z" style="fill:#fff;fill-opacity:0.44;"/></g><g><path d="M219.032,558.236c2.492,4.262 7.092,7.684 13.135,10.263c7.087,3.025 16.148,4.874 25.217,5.908c19.033,2.171 37.936,0.87 37.936,0.87c0,0 -9.339,-0.672 -21.392,-2.495c-9.797,-1.482 -21.314,-3.789 -31.002,-7.218c-5.886,-2.083 -11.027,-4.57 -14.497,-7.709c-3.408,-3.084 -4.804,-6.917 -2.668,-11.824c1.353,-3.327 2.091,-5.2 2.322,-5.888c0.181,-0.538 0.245,-0.885 0.263,-1.034c0.199,-1.704 -0.528,-2.631 -0.873,-3.024c-0.64,-0.731 -1.397,-1.175 -2.283,-1.312c-0.725,-0.112 -1.748,-0.163 -2.842,0.619c-0.158,0.113 -0.776,0.488 -1.306,1.499c-0.173,0.329 -0.522,1.046 -0.991,2.108c-1.217,2.757 -3.452,8.016 -6.108,14.538c-1.803,4.427 -3.798,9.42 -5.816,14.606c-8.064,20.721 -16.741,44.102 -16.741,44.102c0,0 11.506,-22.119 21.581,-41.937c2.141,-4.209 4.196,-8.31 6.065,-12.072Zm1.628,-19.53c0.304,-0.641 0.41,-1.04 0.156,-1.134c-0.101,-0.037 -0.039,0.177 -0.048,0.215c-0.081,0.338 -0.112,0.644 -0.108,0.919Z" style="fill:#fff;fill-opacity:0.59;"/><path d="M219.032,558.236c2.492,4.262 7.092,7.684 13.135,10.263c7.087,3.025 16.148,4.874 25.217,5.908c19.033,2.171 37.936,0.87 37.936,0.87c0,0 -9.339,-0.672 -21.392,-2.495c-9.797,-1.482 -21.314,-3.789 -31.002,-7.218c-5.886,-2.083 -11.027,-4.57 -14.497,-7.709c-3.408,-3.084 -4.804,-6.917 -2.668,-11.824c1.353,-3.327 2.091,-5.2 2.322,-5.888c0.181,-0.538 0.245,-0.885 0.263,-1.034c0.199,-1.704 -0.528,-2.631 -0.873,-3.024c-0.64,-0.731 -1.397,-1.175 -2.283,-1.312c-0.725,-0.112 -1.748,-0.163 -2.842,0.619c-0.158,0.113 -0.776,0.488 -1.306,1.499c-0.173,0.329 -0.522,1.046 -0.991,2.108c-1.217,2.757 -3.452,8.016 -6.108,14.538c-1.803,4.427 -3.798,9.42 -5.816,14.606c-8.064,20.721 -16.741,44.102 -16.741,44.102c0,0 11.506,-22.119 21.581,-41.937c2.141,-4.209 4.196,-8.31 6.065,-12.072Zm1.628,-19.53c0.304,-0.641 0.41,-1.04 0.156,-1.134c-0.101,-0.037 -0.039,0.177 -0.048,0.215c-0.081,0.338 -0.112,0.644 -0.108,0.919Z" style="fill:#fff;fill-opacity:0.59;"/><path d="M217.357,569.161c3.045,3.887 8.065,6.655 14.401,8.394c7.432,2.039 16.659,2.646 25.785,2.445c19.152,-0.422 37.706,-4.266 37.706,-4.266c-0,0 -9.344,0.597 -21.534,0.42c-9.907,-0.144 -21.63,-0.874 -31.693,-2.961c-6.113,-1.269 -11.544,-3.038 -15.406,-5.679c-3.793,-2.595 -5.695,-6.204 -4.242,-11.355c0.891,-3.479 1.369,-5.435 1.506,-6.148c0.106,-0.557 0.123,-0.91 0.12,-1.06c-0.033,-1.715 -0.879,-2.536 -1.273,-2.878c-0.734,-0.637 -1.544,-0.976 -2.441,-0.991c-0.732,-0.013 -1.753,0.074 -2.732,0.997c-0.141,0.133 -0.703,0.589 -1.091,1.662c-0.126,0.349 -0.376,1.107 -0.697,2.223c-0.833,2.895 -2.337,8.409 -4.087,15.23c-1.188,4.63 -2.489,9.846 -3.788,15.257c-5.189,21.622 -10.625,45.961 -10.625,45.961c-0,0 8.41,-23.472 15.714,-44.469c1.552,-4.461 3.033,-8.801 4.377,-12.782Zm-1.027,-19.57c0.215,-0.676 0.266,-1.086 0.001,-1.145c-0.105,-0.023 -0.015,0.18 -0.019,0.22c-0.034,0.346 -0.023,0.653 0.018,0.925Z" style="fill:#fff;fill-opacity:0.59;"/><path d="M217.174,580.213c3.542,3.439 8.891,5.504 15.404,6.37c7.639,1.016 16.863,0.37 25.879,-1.063c18.918,-3.007 36.782,-9.323 36.782,-9.323c0,-0 -9.177,1.854 -21.279,3.326c-9.835,1.197 -21.55,2.059 -31.802,1.35c-6.229,-0.43 -11.849,-1.449 -16.032,-3.544c-4.11,-2.058 -6.482,-5.377 -5.738,-10.677c0.412,-3.568 0.622,-5.57 0.66,-6.295c0.031,-0.566 -0.001,-0.918 -0.024,-1.067c-0.265,-1.695 -1.213,-2.393 -1.65,-2.679c-0.813,-0.532 -1.661,-0.758 -2.552,-0.652c-0.728,0.086 -1.727,0.31 -2.572,1.357c-0.122,0.151 -0.617,0.679 -0.857,1.794c-0.078,0.363 -0.223,1.148 -0.39,2.297c-0.434,2.981 -1.179,8.647 -1.991,15.643c-0.551,4.748 -1.135,10.092 -1.69,15.629c-2.219,22.125 -4.316,46.975 -4.316,46.975c0,0 5.16,-24.393 9.559,-46.185c0.935,-4.629 1.816,-9.131 2.609,-13.256Zm-3.663,-19.252c0.122,-0.699 0.117,-1.111 -0.153,-1.134c-0.108,-0.009 0.009,0.18 0.011,0.22c0.013,0.348 0.065,0.651 0.142,0.914Z" style="fill:#fff;fill-opacity:0.59;"/><path d="M218.487,591.188c3.975,2.929 9.553,4.252 16.124,4.23c7.705,-0.026 16.758,-1.913 25.497,-4.552c18.338,-5.537 35.185,-14.21 35.185,-14.21c-0,0 -8.843,3.078 -20.634,6.172c-9.584,2.515 -21.074,4.953 -31.328,5.637c-6.23,0.416 -11.936,0.166 -16.364,-1.345c-4.351,-1.483 -7.149,-4.451 -7.129,-9.803c-0.074,-3.59 -0.137,-5.603 -0.196,-6.326c-0.047,-0.566 -0.126,-0.91 -0.169,-1.054c-0.491,-1.644 -1.526,-2.207 -1.997,-2.432c-0.878,-0.417 -1.748,-0.526 -2.617,-0.301c-0.709,0.184 -1.669,0.541 -2.365,1.692c-0.1,0.167 -0.519,0.756 -0.606,1.894c-0.028,0.37 -0.066,1.167 -0.076,2.329c-0.027,3.012 0.001,8.727 0.142,15.768c0.096,4.779 0.239,10.153 0.438,15.714c0.792,22.222 2.074,47.128 2.074,47.128c-0,-0 1.815,-24.867 3.228,-47.054c0.3,-4.713 0.565,-9.292 0.793,-13.487Zm-6.232,-18.58c0.026,-0.709 -0.035,-1.117 -0.305,-1.103c-0.108,0.006 0.034,0.178 0.041,0.217c0.059,0.342 0.152,0.635 0.264,0.886Z" style="fill:#fff;fill-opacity:0.59;"/><path d="M221.271,601.885c4.334,2.365 10.04,2.921 16.548,2.011c7.631,-1.067 16.346,-4.16 24.648,-7.956c17.421,-7.965 32.941,-18.836 32.941,-18.836c-0,0 -8.346,4.245 -19.611,8.905c-9.155,3.787 -20.211,7.756 -30.278,9.82c-6.116,1.253 -11.804,1.777 -16.396,0.879c-4.511,-0.882 -7.684,-3.444 -8.388,-8.75c-0.558,-3.547 -0.893,-5.532 -1.05,-6.241c-0.123,-0.554 -0.247,-0.885 -0.309,-1.021c-0.709,-1.563 -1.81,-1.981 -2.308,-2.14c-0.926,-0.295 -1.803,-0.285 -2.633,0.055c-0.678,0.278 -1.581,0.762 -2.115,1.997c-0.077,0.178 -0.412,0.819 -0.345,1.959c0.022,0.37 0.093,1.165 0.24,2.317c0.38,2.988 1.181,8.647 2.272,15.604c0.741,4.722 1.61,10.028 2.558,15.511c3.789,21.91 8.425,46.414 8.425,46.414c0,0 -1.562,-24.884 -3.162,-47.057c-0.339,-4.711 -0.696,-9.284 -1.037,-13.471Zm-8.686,-17.567c-0.07,-0.706 -0.185,-1.102 -0.452,-1.052c-0.106,0.02 0.058,0.171 0.07,0.209c0.106,0.332 0.237,0.61 0.382,0.843Z" style="fill:#fff;fill-opacity:0.59;"/><path d="M225.476,612.107c4.614,1.757 10.343,1.538 16.667,-0.244c7.418,-2.089 15.634,-6.332 23.347,-11.215c16.185,-10.247 30.092,-23.116 30.092,-23.116c0,0 -7.695,5.335 -18.226,11.475c-8.56,4.99 -18.978,10.416 -28.674,13.822c-5.89,2.069 -11.455,3.357 -16.126,3.088c-4.588,-0.264 -8.08,-2.374 -9.494,-7.536c-1.033,-3.439 -1.633,-5.361 -1.884,-6.042c-0.196,-0.532 -0.364,-0.843 -0.444,-0.97c-0.914,-1.452 -2.062,-1.718 -2.576,-1.808c-0.957,-0.167 -1.826,-0.039 -2.602,0.41c-0.634,0.368 -1.463,0.969 -1.825,2.265c-0.052,0.187 -0.298,0.867 -0.077,1.987c0.072,0.364 0.25,1.142 0.551,2.263c0.78,2.91 2.338,8.408 4.36,15.154c1.373,4.579 2.951,9.718 4.631,15.023c6.716,21.197 14.622,44.85 14.622,44.85c0,-0 -4.912,-24.445 -9.494,-46.199c-0.973,-4.621 -1.944,-9.104 -2.848,-13.207Zm-10.981,-16.231c-0.165,-0.691 -0.333,-1.067 -0.59,-0.981c-0.102,0.034 0.08,0.162 0.098,0.197c0.149,0.314 0.317,0.572 0.492,0.784Z" style="fill:#fff;fill-opacity:0.59;"/></g><g><path d="M406.959,117.217c-2.492,-4.263 -7.092,-7.684 -13.135,-10.264c-7.087,-3.025 -16.148,-4.874 -25.217,-5.908c-19.033,-2.17 -37.936,-0.87 -37.936,-0.87c-0,0 9.339,0.672 21.392,2.495c9.797,1.482 21.314,3.789 31.002,7.218c5.886,2.083 11.027,4.57 14.497,7.71c3.408,3.083 4.804,6.916 2.668,11.824c-1.353,3.326 -2.091,5.199 -2.322,5.887c-0.181,0.538 -0.245,0.886 -0.263,1.035c-0.199,1.704 0.528,2.631 0.873,3.023c0.64,0.731 1.397,1.176 2.283,1.312c0.725,0.112 1.748,0.163 2.842,-0.618c0.158,-0.113 0.776,-0.489 1.306,-1.5c0.173,-0.328 0.522,-1.046 0.991,-2.108c1.217,-2.756 3.452,-8.016 6.108,-14.538c1.803,-4.427 3.798,-9.419 5.816,-14.605c8.064,-20.722 16.741,-44.103 16.741,-44.103c-0,0 -11.506,22.12 -21.581,41.937c-2.141,4.21 -4.196,8.311 -6.065,12.073Zm-1.628,19.53c-0.304,0.64 -0.41,1.039 -0.156,1.133c0.101,0.038 0.039,-0.176 0.048,-0.215c0.081,-0.338 0.112,-0.644 0.108,-0.918Z" style="fill:#fff;fill-opacity:0.59;"/><path d="M406.959,117.217c-2.492,-4.263 -7.092,-7.684 -13.135,-10.264c-7.087,-3.025 -16.148,-4.874 -25.217,-5.908c-19.033,-2.17 -37.936,-0.87 -37.936,-0.87c-0,0 9.339,0.672 21.392,2.495c9.797,1.482 21.314,3.789 31.002,7.218c5.886,2.083 11.027,4.57 14.497,7.71c3.408,3.083 4.804,6.916 2.668,11.824c-1.353,3.326 -2.091,5.199 -2.322,5.887c-0.181,0.538 -0.245,0.886 -0.263,1.035c-0.199,1.704 0.528,2.631 0.873,3.023c0.64,0.731 1.397,1.176 2.283,1.312c0.725,0.112 1.748,0.163 2.842,-0.618c0.158,-0.113 0.776,-0.489 1.306,-1.5c0.173,-0.328 0.522,-1.046 0.991,-2.108c1.217,-2.756 3.452,-8.016 6.108,-14.538c1.803,-4.427 3.798,-9.419 5.816,-14.605c8.064,-20.722 16.741,-44.103 16.741,-44.103c-0,0 -11.506,22.12 -21.581,41.937c-2.141,4.21 -4.196,8.311 -6.065,12.073Zm-1.628,19.53c-0.304,0.64 -0.41,1.039 -0.156,1.133c0.101,0.038 0.039,-0.176 0.048,-0.215c0.081,-0.338 0.112,-0.644 0.108,-0.918Z" style="fill:#fff;fill-opacity:0.59;"/><path d="M408.634,106.291c-3.045,-3.886 -8.065,-6.655 -14.401,-8.394c-7.432,-2.039 -16.659,-2.646 -25.785,-2.445c-19.152,0.422 -37.706,4.266 -37.706,4.266c0,0 9.344,-0.596 21.534,-0.419c9.907,0.144 21.63,0.873 31.693,2.961c6.113,1.268 11.544,3.037 15.406,5.679c3.793,2.594 5.695,6.203 4.242,11.355c-0.891,3.478 -1.369,5.434 -1.506,6.147c-0.106,0.557 -0.123,0.91 -0.12,1.06c0.033,1.716 0.879,2.536 1.273,2.878c0.734,0.638 1.544,0.976 2.441,0.992c0.732,0.013 1.753,-0.075 2.732,-0.997c0.141,-0.134 0.703,-0.59 1.091,-1.663c0.126,-0.349 0.376,-1.107 0.697,-2.223c0.833,-2.895 2.337,-8.408 4.087,-15.229c1.188,-4.631 2.489,-9.847 3.788,-15.258c5.189,-21.622 10.625,-45.961 10.625,-45.961c0,0 -8.41,23.472 -15.714,44.469c-1.552,4.461 -3.033,8.802 -4.377,12.782Zm1.027,19.571c-0.215,0.676 -0.266,1.085 -0.001,1.144c0.105,0.024 0.015,-0.18 0.019,-0.22c0.034,-0.346 0.023,-0.653 -0.018,-0.924Z" style="fill:#fff;fill-opacity:0.59;"/><path d="M408.817,95.239c-3.542,-3.439 -8.891,-5.504 -15.404,-6.37c-7.639,-1.016 -16.863,-0.37 -25.879,1.063c-18.918,3.007 -36.782,9.324 -36.782,9.324c-0,-0 9.177,-1.855 21.279,-3.327c9.835,-1.196 21.55,-2.058 31.802,-1.35c6.229,0.431 11.849,1.449 16.032,3.544c4.11,2.059 6.482,5.377 5.738,10.678c-0.412,3.567 -0.622,5.569 -0.66,6.294c-0.031,0.567 0.001,0.919 0.024,1.067c0.265,1.695 1.213,2.394 1.65,2.68c0.813,0.532 1.661,0.758 2.552,0.652c0.728,-0.086 1.727,-0.311 2.572,-1.357c0.122,-0.151 0.617,-0.679 0.857,-1.795c0.078,-0.363 0.223,-1.147 0.39,-2.297c0.434,-2.981 1.179,-8.647 1.991,-15.642c0.551,-4.748 1.135,-10.093 1.69,-15.63c2.219,-22.124 4.316,-46.975 4.316,-46.975c-0,0 -5.16,24.393 -9.559,46.185c-0.935,4.63 -1.816,9.131 -2.609,13.256Zm3.663,19.252c-0.122,0.699 -0.117,1.112 0.153,1.134c0.108,0.01 -0.009,-0.18 -0.011,-0.22c-0.013,-0.347 -0.065,-0.65 -0.142,-0.914Z" style="fill:#fff;fill-opacity:0.59;"/><path d="M407.504,84.264c-3.975,-2.929 -9.553,-4.251 -16.124,-4.229c-7.705,0.026 -16.758,1.913 -25.497,4.551c-18.338,5.537 -35.185,14.21 -35.185,14.21c0,0 8.843,-3.078 20.634,-6.172c9.584,-2.515 21.074,-4.953 31.328,-5.637c6.23,-0.415 11.936,-0.165 16.364,1.345c4.351,1.484 7.149,4.451 7.129,9.804c0.074,3.59 0.137,5.602 0.196,6.325c0.047,0.566 0.126,0.911 0.169,1.054c0.491,1.644 1.526,2.208 1.997,2.432c0.878,0.418 1.748,0.527 2.617,0.302c0.709,-0.184 1.669,-0.542 2.365,-1.693c0.1,-0.166 0.519,-0.756 0.606,-1.894c0.028,-0.37 0.066,-1.167 0.076,-2.328c0.027,-3.013 -0.001,-8.727 -0.142,-15.768c-0.096,-4.779 -0.239,-10.154 -0.438,-15.715c-0.792,-22.221 -2.074,-47.127 -2.074,-47.127c0,-0 -1.815,24.867 -3.228,47.053c-0.3,4.713 -0.565,9.293 -0.793,13.487Zm6.232,18.58c-0.026,0.709 0.035,1.117 0.305,1.103c0.108,-0.005 -0.034,-0.177 -0.041,-0.216c-0.059,-0.343 -0.152,-0.636 -0.264,-0.887Z" style="fill:#fff;fill-opacity:0.59;"/><path d="M404.72,73.567c-4.334,-2.364 -10.04,-2.921 -16.548,-2.011c-7.631,1.068 -16.346,4.161 -24.648,7.956c-17.421,7.965 -32.941,18.836 -32.941,18.836c0,0 8.346,-4.245 19.611,-8.905c9.155,-3.787 20.211,-7.756 30.278,-9.819c6.116,-1.254 11.804,-1.778 16.396,-0.88c4.511,0.882 7.684,3.444 8.388,8.75c0.558,3.547 0.893,5.533 1.05,6.241c0.123,0.554 0.247,0.885 0.309,1.022c0.709,1.562 1.81,1.981 2.308,2.139c0.926,0.295 1.803,0.286 2.633,-0.055c0.678,-0.278 1.581,-0.762 2.115,-1.997c0.077,-0.178 0.412,-0.819 0.345,-1.958c-0.022,-0.37 -0.093,-1.165 -0.24,-2.317c-0.38,-2.989 -1.181,-8.647 -2.272,-15.604c-0.741,-4.723 -1.61,-10.028 -2.558,-15.511c-3.789,-21.911 -8.425,-46.415 -8.425,-46.415c-0,-0 1.562,24.884 3.162,47.058c0.339,4.71 0.696,9.283 1.037,13.47Zm8.686,17.568c0.07,0.706 0.185,1.101 0.452,1.051c0.106,-0.02 -0.058,-0.171 -0.07,-0.209c-0.106,-0.331 -0.237,-0.609 -0.382,-0.842Z" style="fill:#fff;fill-opacity:0.59;"/><path d="M400.515,63.345c-4.614,-1.757 -10.343,-1.537 -16.667,0.244c-7.418,2.089 -15.634,6.332 -23.347,11.215c-16.185,10.247 -30.092,23.116 -30.092,23.116c-0,-0 7.695,-5.334 18.226,-11.474c8.56,-4.99 18.978,-10.417 28.674,-13.823c5.89,-2.069 11.455,-3.356 16.126,-3.087c4.588,0.264 8.08,2.373 9.494,7.535c1.033,3.44 1.633,5.361 1.884,6.042c0.196,0.533 0.364,0.844 0.444,0.971c0.914,1.452 2.062,1.718 2.576,1.808c0.957,0.167 1.826,0.039 2.602,-0.411c0.634,-0.367 1.463,-0.969 1.825,-2.264c0.052,-0.187 0.298,-0.868 0.077,-1.987c-0.072,-0.364 -0.25,-1.142 -0.551,-2.264c-0.78,-2.91 -2.338,-8.408 -4.36,-15.154c-1.373,-4.578 -2.951,-9.718 -4.631,-15.022c-6.716,-21.198 -14.622,-44.85 -14.622,-44.85c-0,-0 4.912,24.444 9.494,46.198c0.973,4.622 1.944,9.104 2.848,13.207Zm10.981,16.232c0.165,0.69 0.333,1.067 0.59,0.981c0.102,-0.034 -0.08,-0.162 -0.098,-0.198c-0.149,-0.314 -0.317,-0.572 -0.492,-0.783Z" style="fill:#fff;fill-opacity:0.59;"/></g></g></svg>