<?xml version="1.0" encoding="UTF-8" standalone="no"?><!DOCTYPE svg PUBLIC "-//W3C//DTD SVG 1.1//EN" "http://www.w3.org/Graphics/SVG/1.1/DTD/svg11.dtd"><svg width="100%" height="100%" viewBox="0 0 4573 2332" version="1.1" xmlns="http://www.w3.org/2000/svg" xmlns:xlink="http://www.w3.org/1999/xlink" xml:space="preserve" xmlns:serif="http://www.serif.com/" style="fill-rule:evenodd;clip-rule:evenodd;stroke-linejoin:round;stroke-miterlimit:2;"><g id="TitleCard"><g><g><path d="M1734.86,629.92c-16.57,57.775 -48.853,102.55 -96.851,134.327c-47.998,31.776 -97.571,50.553 -148.718,56.33l67.116,320.652c3.756,11.555 9.432,19.499 17.026,23.832c7.595,4.333 16.695,6.5 27.3,6.5l31.815,-0l-7.456,25.999l-148.47,-0l-68.111,-372.649l-121.957,-0l-89.474,311.985c-3.313,11.555 -1.38,20.221 5.8,25.999c7.181,5.777 17.841,8.666 31.981,8.666l31.815,-0l-7.456,25.999l-243.915,-0l7.457,-25.999l31.815,-0c17.675,-0 30.875,-2.889 39.602,-8.666c8.727,-5.778 14.748,-14.444 18.062,-25.999l177.704,-619.638c3.314,-11.555 2.265,-20.221 -3.148,-25.998c-5.413,-5.778 -16.957,-8.667 -34.632,-8.667l-31.815,0l7.456,-25.998l302.242,-0c81.305,-0 139.908,14.443 175.811,43.331c35.903,28.887 45.57,72.219 29.001,129.994Zm-440.85,168.992l116.655,-0c53.025,-0 100.941,-13 143.747,-38.998c42.806,-25.999 72.079,-66.442 87.82,-121.328c14.084,-49.109 9.153,-87.385 -14.791,-114.828c-23.945,-27.443 -69.499,-41.165 -136.664,-41.165l-58.328,0c-14.14,0 -26.457,2.889 -36.951,8.667c-10.495,5.777 -17.399,14.443 -20.713,25.998l-80.775,281.654Z" style="fill:#fff;fill-rule:nonzero;"/><path d="M2303.81,1197.56l-227.925,-0l7.456,-25.999l15.908,-0c21.21,-0 35.233,-5.755 42.069,-17.265c6.836,-11.51 6.07,-27.33 -2.296,-47.461l-89.981,-315.168l-113.014,98.241l-70.834,246.988c-3.314,11.555 -1.38,20.221 5.8,25.999c7.181,5.777 17.841,8.666 31.981,8.666l31.815,-0l-7.456,25.999l-243.915,-0l7.456,-25.999l31.815,-0c17.675,-0 30.876,-2.889 39.603,-8.666c8.727,-5.778 14.747,-14.444 18.061,-25.999l177.705,-619.638c3.314,-11.555 2.265,-20.221 -3.149,-25.998c-5.413,-5.778 -16.957,-8.667 -34.632,-8.667l-31.815,0l7.457,-25.998l243.914,-0l-7.456,25.998l-31.815,0c-14.14,0 -26.451,2.867 -36.932,8.599c-10.482,5.732 -17.36,14.308 -20.635,25.728l-89.843,313.272l331.507,-286.935c23.474,-20.221 33.126,-35.387 28.956,-45.498c-4.171,-10.11 -18.628,-15.166 -43.373,-15.166l-21.21,0l7.456,-25.998l228.007,-0l-7.456,25.998l-10.605,0c-17.675,0 -36.593,4.334 -56.753,13c-20.161,8.666 -41.564,21.665 -64.209,38.998l-224.358,190.658l113.679,398.647c5.634,17.333 13.602,29.61 23.903,36.832c10.302,7.222 18.987,10.833 26.057,10.833l26.513,-0l-7.456,25.999Z" style="fill:#fff;fill-rule:nonzero;"/><path d="M3024.19,534.591c8.506,-17.333 9.583,-30.332 3.231,-38.998c-6.352,-8.666 -21.901,-13 -46.646,-13l-10.605,0l7.456,-25.998l206.798,-0l-7.457,25.998l-15.907,0c-17.675,0 -35.032,5.056 -52.072,15.166c-17.039,10.111 -33.761,25.277 -50.166,45.498l-262.549,342.317l-72.077,251.322c-3.313,11.555 -1.38,20.221 5.8,25.999c7.181,5.777 17.841,8.666 31.981,8.666l47.723,-0l-7.456,25.999l-275.73,-0l7.456,-25.999l47.723,-0c17.675,-0 30.876,-2.889 39.602,-8.666c8.727,-5.778 14.748,-14.444 18.062,-25.999l64.62,-225.323l-70.928,-381.315c-2.928,-14.444 -8.451,-25.999 -16.571,-34.665c-8.12,-8.666 -21.017,-13 -38.692,-13l-10.605,0l7.456,-25.998l233.31,-0l-7.456,25.998l-31.815,0c-21.21,0 -34.825,4.334 -40.846,13c-6.02,8.666 -7.981,21.665 -5.882,38.998l51.208,320.651l10.605,0l240.429,-320.651Z" style="fill:#fff;fill-rule:nonzero;"/><path d="M3264.39,824.911c-35.624,124.216 -42.955,214.489 -21.992,270.82c20.962,56.331 59.723,84.496 116.283,84.496c60.095,0 115.481,-26.721 166.157,-80.163c50.677,-53.442 94.655,-145.16 131.936,-275.153c29.825,-103.996 38.826,-187.769 27.005,-251.322c-11.821,-63.552 -53.082,-95.329 -123.782,-95.329c-60.094,0 -116.101,28.888 -168.021,86.663c-51.919,57.775 -94.448,144.437 -127.586,259.988Zm493.131,-0c-33.966,118.438 -88.964,211.601 -164.993,279.486c-76.029,67.886 -156.463,101.829 -241.303,101.829c-81.305,-0 -141.179,-34.665 -179.624,-103.995c-38.444,-69.33 -41.097,-161.77 -7.958,-277.32c32.31,-112.662 85.802,-203.657 160.478,-272.988c74.675,-69.33 156.2,-103.995 244.575,-103.995c91.91,0 153.815,36.832 185.714,110.495c31.899,73.663 32.936,162.492 3.111,266.488Z" style="fill:#fff;fill-rule:nonzero;"/><path d="M4271.59,1029.25l10.605,-0l146.734,-511.648c3.353,-11.69 2.329,-20.447 -3.071,-26.27c-5.4,-5.822 -16.937,-8.734 -34.612,-8.734l-42.42,0l7.456,-25.998l212.099,-0l-7.456,25.998l-42.42,0c-14.14,0 -26.457,2.889 -36.951,8.667c-10.495,5.777 -17.399,14.443 -20.713,25.998l-195.102,680.302l-31.815,-0l-216.974,-648.616l-10.605,0l-168.579,587.816c-3.327,11.601 -1.403,20.301 5.771,26.101c7.174,5.8 17.831,8.7 31.971,8.7l42.42,-0l-7.456,25.999l-212.1,-0l7.456,-25.999l42.42,-0c17.675,-0 30.876,-2.889 39.603,-8.666c8.727,-5.778 14.748,-14.444 18.061,-25.999l177.705,-619.638c3.314,-11.555 2.265,-20.221 -3.148,-25.998c-5.414,-5.778 -16.958,-8.667 -34.633,-8.667l-31.814,0l7.456,-25.998l153.772,-0l196.34,572.65Z" style="fill:#fff;fill-rule:nonzero;"/></g><path d="M789.335,758l-305.608,0l-135.133,258.07c-11.02,22.637 -18.477,40.747 -22.373,54.33c-5.193,18.11 -6.991,36.22 -5.394,54.33c1.598,18.11 18.243,27.166 49.935,27.166l20.374,-0l-11.686,40.747l-251.278,0l11.686,-40.747l20.374,-0c18.11,-0 35.58,-5.66 52.408,-16.979c16.829,-11.319 31.403,-30.561 43.721,-57.726l562.853,-1039.07l111.608,-33.956l-49.662,1073.02c1.264,27.165 7.065,46.407 17.401,57.726c10.337,11.319 24.56,16.979 42.67,16.979l20.374,-0l-11.686,40.747l-292.026,0l11.686,-40.747l27.166,-0c27.165,-0 44.634,-5.66 52.408,-16.979c7.773,-11.319 12.959,-21.505 15.556,-30.561c5.193,-18.11 7.474,-33.956 6.842,-47.539l17.784,-298.817Zm30.725,-604.425l-6.791,0l-304.273,563.678l285.234,-0l25.83,-563.678Z" style="fill:#fff;fill-rule:nonzero;"/><g><path d="M3007.04,1381.39l7.873,-23.907l396.69,0l-0.084,135.473l-22.863,7.969c-8.468,-39.845 -21.566,-69.729 -39.293,-89.651c-17.726,-19.922 -41.432,-29.884 -71.116,-29.884l-113.34,0c-10.794,0 -20.44,2.657 -28.935,7.969c-8.496,5.313 -14.494,13.282 -17.992,23.907l-81.348,247.038l117.388,-0c26.986,-0 48.737,-6.641 65.254,-19.922c16.517,-13.282 29.149,-33.204 37.896,-59.768l7.873,-23.907l24.287,0l-77.412,235.085l-24.287,-0l5.249,-15.938c9.621,-29.22 10.984,-51.798 4.089,-67.736c-6.895,-15.938 -23.836,-23.907 -50.821,-23.907l-117.388,-0l-98.405,298.836c-3.498,10.625 -2.749,18.594 2.248,23.907c4.997,5.312 12.892,7.969 23.687,7.969l105.244,-0c40.479,-0 78.603,-11.29 114.373,-33.868c35.77,-22.579 69.623,-57.775 101.559,-105.589l17.615,7.969l-95.697,155.395l-412.881,-0l7.873,-23.907l24.287,-0c13.493,-0 23.812,-2.657 30.959,-7.969c7.146,-5.313 12.469,-13.282 15.968,-23.907l187.624,-569.781c3.499,-10.625 3.424,-18.594 -0.223,-23.907c-3.648,-5.312 -12.218,-7.969 -25.711,-7.969l-20.24,0Z" style="fill:#fff;fill-rule:nonzero;"/><path d="M3589.93,1381.39l7.872,-23.907l323.828,0l-7.872,23.907l-93.101,0c-10.794,0 -20.439,2.657 -28.935,7.969c-8.496,5.313 -14.493,13.282 -17.992,23.907l-187.624,569.781c-3.499,10.625 -2.75,18.594 2.247,23.907c4.997,5.312 12.893,7.969 23.687,7.969l93.101,-0l-7.872,23.907l-323.829,-0l7.873,-23.907l93.1,-0c13.493,-0 23.813,-2.657 30.959,-7.969c7.147,-5.313 12.47,-13.282 15.968,-23.907l187.625,-569.781c3.498,-10.625 3.424,-18.594 -0.224,-23.907c-3.648,-5.312 -12.218,-7.969 -25.711,-7.969l-93.1,0Z" style="fill:#fff;fill-rule:nonzero;"/><path d="M3974.7,1983.05c-3.499,10.625 -2.749,18.594 2.247,23.907c4.998,5.312 12.893,7.969 23.687,7.969l109.293,-0c37.78,-0 73.88,-11.29 108.301,-33.868c34.42,-22.579 66.249,-57.775 95.487,-105.589l17.615,7.969l-87.601,155.395l-416.929,-0l7.872,-23.907l28.335,-0c13.493,-0 23.813,-2.657 30.959,-7.969c7.147,-5.313 12.47,-13.282 15.969,-23.907l187.624,-569.781c3.498,-10.625 3.424,-18.594 -0.224,-23.907c-3.647,-5.312 -12.218,-7.969 -25.711,-7.969l-24.287,0l7.873,-23.907l190.249,0l-7.873,23.907l-28.334,0c-10.795,0 -20.44,2.657 -28.936,7.969c-8.495,5.313 -14.493,13.282 -17.992,23.907l-187.624,569.781Z" style="fill:#fff;fill-rule:nonzero;"/></g><path d="M2719.33,1391.52l11.207,-34.034l207.447,0l-11.207,34.034l-23.05,-0c-15.366,-0 -31.64,5.672 -48.821,17.016c-17.181,11.345 -34.595,32.143 -52.24,62.395l-518.299,856.504l-34.575,-0l68.83,-856.504c4.875,-26.471 4.69,-46.323 -0.556,-59.559c-5.246,-13.235 -17.473,-19.852 -36.681,-19.852l-28.812,-0l11.207,-34.034l247.784,0l-11.207,34.034l-23.049,-0c-19.209,-0 -33.562,5.672 -43.06,17.016c-9.498,11.345 -15.439,26.471 -17.823,45.378l-57.187,663.649l11.525,-0l385.804,-646.632c8.823,-15.126 14.479,-26.471 16.969,-34.034c3.736,-11.344 4.279,-21.743 1.63,-31.197c-2.65,-9.453 -15.499,-14.18 -38.549,-14.18l-17.287,-0Z" style="fill:#fff;fill-rule:nonzero;"/></g><path d="M40.737,1307.51l-40.737,-45.357l4493.72,0l-22.517,38.069l-4430.47,7.288Z" style="fill:#fff;"/></g></svg>