<?xml version="1.0" encoding="UTF-8" standalone="no"?><!DOCTYPE svg PUBLIC "-//W3C//DTD SVG 1.1//EN" "http://www.w3.org/Graphics/SVG/1.1/DTD/svg11.dtd"><svg width="100%" height="100%" viewBox="0 0 510 85" version="1.1" xmlns="http://www.w3.org/2000/svg" xmlns:xlink="http://www.w3.org/1999/xlink" xml:space="preserve" xmlns:serif="http://www.serif.com/" style="fill-rule:evenodd;clip-rule:evenodd;stroke-linejoin:round;stroke-miterlimit:2;"><path d="M509.722,81.25l-509.722,0l0,2.778l509.722,-0l0,-2.778Zm0,-74.306l-509.722,0l0,70.139l509.722,0l0,-70.139Zm-358.681,59.806l-0.468,-3.96c0.922,0.25 1.726,0.375 2.414,0.375c0.937,-0 1.687,-0.157 2.249,-0.469c0.563,-0.313 1.024,-0.75 1.383,-1.312c0.266,-0.422 0.695,-1.469 1.289,-3.141c0.078,-0.234 0.203,-0.578 0.375,-1.031l-9.445,-24.936l4.547,0l5.179,14.413c0.672,1.828 1.274,3.75 1.805,5.765c0.484,-1.937 1.062,-3.827 1.734,-5.671l5.32,-14.507l4.219,0l-9.469,25.311c-1.015,2.734 -1.804,4.617 -2.367,5.648c-0.749,1.39 -1.609,2.41 -2.577,3.058c-0.969,0.649 -2.125,0.973 -3.469,0.973c-0.812,-0 -1.719,-0.172 -2.719,-0.516Zm207.173,-26.529c0,-4.062 0.418,-7.332 1.254,-9.808c0.836,-2.476 2.078,-4.386 3.727,-5.73c1.648,-1.344 3.722,-2.015 6.222,-2.015c1.843,-0 3.46,0.371 4.851,1.113c1.391,0.742 2.539,1.812 3.445,3.21c0.906,1.399 1.617,3.102 2.133,5.109c0.515,2.008 0.773,4.715 0.773,8.121c0,4.031 -0.414,7.285 -1.242,9.761c-0.828,2.476 -2.066,4.39 -3.715,5.742c-1.648,1.351 -3.73,2.027 -6.245,2.027c-3.313,-0 -5.914,-1.187 -7.804,-3.562c-2.266,-2.859 -3.399,-7.515 -3.399,-13.968Zm-52.965,17.53l2.039,-9.984l-3.96,0l-0,-3.492l4.663,0l1.735,-8.507l-6.398,0l-0,-3.492l7.101,0l2.039,-10.054l3.515,0l-2.039,10.054l7.382,0l2.039,-10.054l3.539,0l-2.039,10.054l4.055,0l-0,3.492l-4.758,0l-1.758,8.507l6.516,0l-0,3.492l-7.219,0l-2.039,9.984l-3.515,-0l2.016,-9.984l-7.359,0l-2.039,9.984l-3.516,-0Zm-30.232,-8.601l4.359,0.539c-0.687,2.547 -1.961,4.523 -3.82,5.929c-1.859,1.406 -4.234,2.11 -7.124,2.11c-3.641,-0 -6.527,-1.121 -8.66,-3.364c-2.133,-2.242 -3.199,-5.386 -3.199,-9.432c0,-4.188 1.078,-7.437 3.234,-9.75c2.156,-2.312 4.953,-3.468 8.39,-3.468c3.328,-0 6.047,1.132 8.156,3.398c2.109,2.265 3.164,5.453 3.164,9.562c-0,0.25 -0.008,0.625 -0.024,1.125l-18.561,-0c0.156,2.734 0.93,4.827 2.32,6.28c1.391,1.454 3.125,2.18 5.203,2.18c1.547,0 2.867,-0.406 3.961,-1.219c1.093,-0.812 1.961,-2.109 2.601,-3.89Zm-101.36,-4.429c0,-4.609 1.281,-8.023 3.844,-10.242c2.14,-1.843 4.749,-2.765 7.827,-2.765c3.422,-0 6.218,1.121 8.39,3.363c2.172,2.242 3.258,5.339 3.258,9.292c-0,3.203 -0.481,5.722 -1.442,7.558c-0.96,1.836 -2.359,3.262 -4.195,4.277c-1.835,1.016 -3.839,1.524 -6.011,1.524c-3.484,-0 -6.3,-1.118 -8.449,-3.352c-2.148,-2.234 -3.222,-5.453 -3.222,-9.655Zm-46.403,12.444l0,-34.357l4.219,0l-0,19.592l9.983,-10.124l5.461,0l-9.515,9.234l10.476,15.655l-5.203,0l-8.226,-12.726l-2.976,2.86l-0,9.866l-4.219,0Zm74.667,0l-0,-24.889l3.796,0l0,3.539c1.828,-2.734 4.469,-4.101 7.922,-4.101c1.5,-0 2.878,0.269 4.136,0.808c1.258,0.539 2.199,1.246 2.824,2.121c0.625,0.875 1.063,1.914 1.312,3.117c0.157,0.781 0.235,2.148 0.235,4.101l-0,15.304l-4.219,0l0,-15.139c0,-1.719 -0.164,-3.004 -0.492,-3.856c-0.328,-0.851 -0.91,-1.531 -1.746,-2.039c-0.836,-0.507 -1.816,-0.761 -2.941,-0.761c-1.797,-0 -3.347,0.57 -4.652,1.711c-1.305,1.14 -1.957,3.304 -1.957,6.491l0,13.593l-4.218,0Zm82.775,0l0,-24.889l4.219,0l-0,24.889l-4.219,0Zm10.546,0l0,-34.357l4.219,0l-0,34.357l-4.219,0Zm116.641,-29.857l-0,-4.055l22.24,0l0,3.281c-2.187,2.328 -4.355,5.422 -6.503,9.281c-2.149,3.859 -3.809,7.828 -4.98,11.905c-0.844,2.875 -1.383,6.023 -1.617,9.445l-4.336,0c0.047,-2.703 0.578,-5.968 1.594,-9.796c1.015,-3.828 2.472,-7.519 4.37,-11.074c1.899,-3.554 3.918,-6.55 6.058,-8.987l-16.826,-0Zm-335.883,29.857l13.194,-34.357l4.898,0l14.062,34.357l-5.179,0l-4.008,-10.405l-14.366,-0l-3.773,10.405l-4.828,0Zm35.201,0l-0,-24.889l3.796,0l0,3.773c0.969,-1.765 1.863,-2.929 2.684,-3.492c0.82,-0.562 1.722,-0.843 2.706,-0.843c1.422,-0 2.867,0.453 4.336,1.359l-1.453,3.914c-1.031,-0.61 -2.062,-0.914 -3.094,-0.914c-0.921,-0 -1.749,0.277 -2.484,0.832c-0.734,0.554 -1.257,1.324 -1.57,2.308c-0.469,1.5 -0.703,3.141 -0.703,4.922l-0,13.03l-4.218,0Zm127.772,0l-13.312,-34.357l4.922,0l8.929,24.959c0.719,2 1.32,3.875 1.804,5.625c0.532,-1.875 1.149,-3.75 1.852,-5.625l9.28,-24.959l4.641,0l-13.452,34.357l-4.664,0Zm108.437,0l-4.218,0l0,-26.881c-1.016,0.969 -2.347,1.938 -3.996,2.906c-1.648,0.969 -3.128,1.695 -4.441,2.18l0,-4.078c2.359,-1.109 4.422,-2.453 6.187,-4.031c1.766,-1.578 3.016,-3.109 3.75,-4.593l2.718,-0l0,34.497Zm37.779,-29.857l0,-4.055l22.241,0l-0,3.281c-2.188,2.328 -4.355,5.422 -6.504,9.281c-2.148,3.859 -3.808,7.828 -4.98,11.905c-0.844,2.875 -1.383,6.023 -1.617,9.445l-4.336,0c0.047,-2.703 0.579,-5.968 1.594,-9.796c1.016,-3.828 2.473,-7.519 4.371,-11.074c1.898,-3.554 3.918,-6.55 6.058,-8.987l-16.827,-0Zm-22.639,12.913c0,5.64 0.66,9.394 1.98,11.261c1.321,1.867 2.949,2.8 4.887,2.8c1.937,0 3.566,-0.937 4.886,-2.812c1.32,-1.875 1.98,-5.624 1.98,-11.249c0,-5.656 -0.66,-9.413 -1.98,-11.273c-1.32,-1.859 -2.965,-2.789 -4.933,-2.789c-1.937,0 -3.484,0.821 -4.64,2.461c-1.453,2.094 -2.18,5.961 -2.18,11.601Zm-184.557,4.5c-0,3.187 0.695,5.573 2.085,7.159c1.391,1.586 3.141,2.379 5.25,2.379c2.094,0 3.836,-0.797 5.226,-2.39c1.391,-1.594 2.086,-4.024 2.086,-7.289c0,-3.078 -0.699,-5.41 -2.097,-6.996c-1.399,-1.585 -3.137,-2.378 -5.215,-2.378c-2.109,-0 -3.859,0.789 -5.25,2.367c-1.39,1.578 -2.085,3.96 -2.085,7.148Zm133.514,-0.446l7.359,0l1.757,-8.507l-7.382,0l-1.734,8.507Zm-225.594,-1.218l11.648,-0l-3.586,-9.515c-1.094,-2.891 -1.906,-5.266 -2.437,-7.125c-0.438,2.203 -1.055,4.391 -1.852,6.562l-3.773,10.078Zm175.254,-0.727l13.897,0c-0.187,-2.093 -0.719,-3.664 -1.594,-4.71c-1.343,-1.625 -3.085,-2.438 -5.226,-2.438c-1.937,0 -3.566,0.649 -4.886,1.945c-1.32,1.297 -2.051,3.031 -2.191,5.203Zm23.529,-14.671l0,-4.851l4.219,0l-0,4.851l-4.219,0Zm225.026,-27.659l-509.722,-0l-0,2.778l509.722,-0l0,-2.778Z" style="fill:#fff;"/></svg>