<?xml version="1.0" encoding="UTF-8" standalone="no"?><!DOCTYPE svg PUBLIC "-//W3C//DTD SVG 1.1//EN" "http://www.w3.org/Graphics/SVG/1.1/DTD/svg11.dtd"><svg width="100%" height="100%" viewBox="0 0 307 85" version="1.1" xmlns="http://www.w3.org/2000/svg" xmlns:xlink="http://www.w3.org/1999/xlink" xml:space="preserve" xmlns:serif="http://www.serif.com/" style="fill-rule:evenodd;clip-rule:evenodd;stroke-linejoin:round;stroke-miterlimit:2;"><path d="M306.25,81.25l-306.25,0l0,2.778l306.25,-0l0,-2.778Zm0,-74.306l-306.25,0l0,70.139l306.25,0l0,-70.139Zm-217.985,59.296l-0.469,-3.96c0.922,0.25 1.727,0.375 2.414,0.375c0.937,-0 1.687,-0.157 2.25,-0.469c0.562,-0.313 1.023,-0.75 1.383,-1.313c0.265,-0.421 0.695,-1.468 1.289,-3.14c0.078,-0.234 0.203,-0.578 0.375,-1.031l-9.445,-24.936l4.546,0l5.18,14.413c0.672,1.828 1.273,3.75 1.804,5.765c0.485,-1.937 1.063,-3.828 1.735,-5.671l5.319,-14.507l4.219,0l-9.468,25.311c-1.016,2.734 -1.805,4.617 -2.367,5.648c-0.75,1.39 -1.609,2.41 -2.578,3.058c-0.969,0.649 -2.125,0.973 -3.469,0.973c-0.812,-0 -1.718,-0.172 -2.718,-0.516Zm129.788,-26.529c-0,-4.062 0.418,-7.332 1.253,-9.808c0.836,-2.476 2.078,-4.386 3.727,-5.73c1.648,-1.344 3.722,-2.016 6.222,-2.016c1.844,0 3.461,0.371 4.851,1.114c1.391,0.742 2.539,1.812 3.445,3.21c0.906,1.399 1.617,3.102 2.133,5.109c0.515,2.008 0.773,4.715 0.773,8.121c0,4.031 -0.414,7.284 -1.242,9.761c-0.828,2.476 -2.066,4.39 -3.714,5.742c-1.649,1.351 -3.731,2.027 -6.246,2.027c-3.312,-0 -5.914,-1.188 -7.804,-3.562c-2.266,-2.86 -3.398,-7.515 -3.398,-13.968Zm-52.965,17.53l2.038,-9.984l-3.96,0l-0,-3.492l4.664,0l1.734,-8.507l-6.398,0l-0,-3.492l7.101,0l2.039,-10.054l3.515,0l-2.039,10.054l7.383,0l2.038,-10.054l3.539,0l-2.039,10.054l4.055,0l-0,3.492l-4.758,0l-1.757,8.507l6.515,0l-0,3.492l-7.218,0l-2.039,9.984l-3.516,-0l2.016,-9.984l-7.359,0l-2.039,9.984l-3.515,-0Zm-54.208,-13.03c0,-4.61 1.282,-8.023 3.844,-10.242c2.14,-1.844 4.75,-2.765 7.827,-2.765c3.422,-0 6.219,1.121 8.391,3.363c2.171,2.242 3.257,5.339 3.257,9.292c0,3.203 -0.48,5.722 -1.441,7.558c-0.961,1.836 -2.359,3.262 -4.195,4.277c-1.836,1.016 -3.84,1.523 -6.012,1.523c-3.484,0 -6.3,-1.117 -8.448,-3.351c-2.148,-2.234 -3.223,-5.453 -3.223,-9.655Zm-97.657,12.444l13.195,-34.357l4.898,-0l14.061,34.357l-5.179,-0l-4.008,-10.406l-14.366,0l-3.773,10.406l-4.828,-0Zm35.201,-0l-0,-24.889l3.796,0l0,3.773c0.969,-1.765 1.864,-2.929 2.684,-3.492c0.82,-0.562 1.722,-0.843 2.707,-0.843c1.422,-0 2.867,0.453 4.335,1.359l-1.453,3.914c-1.031,-0.61 -2.062,-0.914 -3.093,-0.914c-0.922,-0 -1.75,0.277 -2.484,0.832c-0.735,0.554 -1.258,1.324 -1.571,2.308c-0.468,1.5 -0.703,3.14 -0.703,4.922l0,13.03l-4.218,-0Zm158.825,-0l-4.219,-0l0,-26.881c-1.015,0.969 -2.347,1.937 -3.996,2.906c-1.648,0.969 -3.128,1.695 -4.441,2.18l0,-4.078c2.36,-1.11 4.422,-2.453 6.187,-4.031c1.766,-1.578 3.016,-3.109 3.75,-4.594l2.719,0l-0,34.498Zm-68.105,-0l0,-24.889l3.797,0l-0,3.539c1.828,-2.734 4.468,-4.101 7.921,-4.101c1.5,-0 2.879,0.269 4.136,0.808c1.258,0.539 2.199,1.246 2.824,2.121c0.625,0.875 1.063,1.914 1.313,3.117c0.156,0.781 0.234,2.148 0.234,4.101l0,15.304l-4.218,-0l-0,-15.14c-0,-1.718 -0.164,-3.003 -0.492,-3.855c-0.328,-0.851 -0.91,-1.531 -1.746,-2.039c-0.836,-0.508 -1.817,-0.761 -2.942,-0.761c-1.796,-0 -3.347,0.57 -4.652,1.71c-1.304,1.141 -1.956,3.305 -1.956,6.492l-0,13.593l-4.219,-0Zm-74.667,-0l0,-34.357l4.219,-0l-0,19.592l9.984,-10.124l5.46,0l-9.515,9.234l10.476,15.655l-5.203,-0l-8.226,-12.726l-2.976,2.859l-0,9.867l-4.219,-0Zm207.244,-29.857l-0,-4.055l22.24,0l0,3.281c-2.187,2.328 -4.355,5.422 -6.503,9.281c-2.148,3.859 -3.808,7.827 -4.98,11.905c-0.844,2.875 -1.383,6.023 -1.617,9.445l-4.336,-0c0.047,-2.703 0.578,-5.968 1.594,-9.796c1.015,-3.828 2.472,-7.519 4.37,-11.074c1.899,-3.554 3.918,-6.55 6.059,-8.987l-16.827,-0Zm-26.694,-0l0,-4.055l22.241,0l-0,3.281c-2.187,2.328 -4.355,5.422 -6.504,9.281c-2.148,3.859 -3.808,7.827 -4.98,11.905c-0.843,2.875 -1.382,6.023 -1.617,9.445l-4.335,-0c0.046,-2.703 0.578,-5.968 1.593,-9.796c1.016,-3.828 2.473,-7.519 4.371,-11.074c1.898,-3.554 3.918,-6.55 6.058,-8.987l-16.827,-0Zm-22.639,12.913c0,5.64 0.66,9.394 1.981,11.261c1.32,1.867 2.949,2.8 4.886,2.8c1.937,0 3.566,-0.937 4.886,-2.812c1.321,-1.875 1.981,-5.625 1.981,-11.249c-0,-5.656 -0.66,-9.414 -1.981,-11.273c-1.32,-1.859 -2.964,-2.789 -4.933,-2.789c-1.937,0 -3.484,0.821 -4.64,2.461c-1.453,2.094 -2.18,5.961 -2.18,11.601Zm-107.172,4.5c0,3.187 0.695,5.573 2.086,7.159c1.39,1.586 3.14,2.379 5.249,2.379c2.094,-0 3.836,-0.797 5.227,-2.391c1.39,-1.593 2.085,-4.023 2.085,-7.288c0,-3.078 -0.699,-5.41 -2.097,-6.996c-1.398,-1.586 -3.137,-2.378 -5.215,-2.378c-2.109,-0 -3.859,0.789 -5.249,2.367c-1.391,1.578 -2.086,3.96 -2.086,7.148Zm56.129,-0.446l7.359,0l1.757,-8.507l-7.382,0l-1.734,8.507Zm-148.208,-1.218l11.647,-0l-3.585,-9.515c-1.094,-2.891 -1.907,-5.266 -2.438,-7.125c-0.437,2.203 -1.054,4.39 -1.851,6.562l-3.773,10.078Zm283.113,-42.547l-306.25,-0l0,2.778l306.25,-0l0,-2.778Z" style="fill:#fff;"/></svg>