<?xml version="1.0" encoding="UTF-8" standalone="no"?><!DOCTYPE svg PUBLIC "-//W3C//DTD SVG 1.1//EN" "http://www.w3.org/Graphics/SVG/1.1/DTD/svg11.dtd"><svg width="100%" height="100%" viewBox="0 0 2655 1968" version="1.1" xmlns="http://www.w3.org/2000/svg" xmlns:xlink="http://www.w3.org/1999/xlink" xml:space="preserve" xmlns:serif="http://www.serif.com/" style="fill-rule:evenodd;clip-rule:evenodd;stroke-linecap:round;stroke-linejoin:round;stroke-miterlimit:1.5;"><path d="M1325.75,1806.23c-27.275,-0.437 -467.537,-10.519 -665.333,-208.315c-0,-0 95.833,350 429.166,350c8.334,-0 -1087.5,175 -1087.5,-595.834c0,-954.166 558.334,-1350 941.667,-1350l-382.16,295.702c509.722,-160.237 1019.45,-174.813 1529.17,-11.99l-380.34,-283.712c383.333,0 941.666,395.834 941.666,1350c0,770.834 -1095.83,595.834 -1087.5,595.834c333.334,-0 429.167,-350 429.167,-350c-204.167,204.166 -666.667,208.333 -666.667,208.333l-1.333,-0.018Zm-446.583,-1008.32c139.128,-0 252.083,133.492 252.083,297.916c-0,164.425 -112.955,297.917 -252.083,297.917c-139.129,0 -252.084,-133.492 -252.084,-297.917c0,-164.424 112.955,-297.916 252.084,-297.916Zm895.833,-0c-139.129,-0 -252.083,133.492 -252.083,297.916c-0,164.425 112.954,297.917 252.083,297.917c139.129,0 252.083,-133.492 252.083,-297.917c0,-164.424 -112.954,-297.916 -252.083,-297.916Z" style="fill:#fff;stroke:#fff;stroke-width:4.17px;"/></svg>