<?xml version="1.0" encoding="UTF-8" standalone="no"?><!DOCTYPE svg PUBLIC "-//W3C//DTD SVG 1.1//EN" "http://www.w3.org/Graphics/SVG/1.1/DTD/svg11.dtd"><svg width="100%" height="100%" viewBox="0 0 510 85" version="1.1" xmlns="http://www.w3.org/2000/svg" xmlns:xlink="http://www.w3.org/1999/xlink" xml:space="preserve" xmlns:serif="http://www.serif.com/" style="fill-rule:evenodd;clip-rule:evenodd;stroke-linejoin:round;stroke-miterlimit:2;"><path d="M509.722,81.25l-509.722,0l0,2.778l509.722,-0l0,-2.778Zm0,-74.306l-509.722,0l0,70.139l509.722,0l0,-70.139Zm-334.349,59.296l-0.469,-3.96c0.922,0.25 1.727,0.375 2.414,0.375c0.938,-0 1.688,-0.157 2.25,-0.469c0.563,-0.313 1.024,-0.75 1.383,-1.313c0.265,-0.421 0.695,-1.468 1.289,-3.14c0.078,-0.234 0.203,-0.578 0.375,-1.031l-9.445,-24.936l4.547,0l5.179,14.413c0.672,1.828 1.273,3.75 1.805,5.765c0.484,-1.937 1.062,-3.828 1.734,-5.671l5.32,-14.507l4.218,0l-9.468,25.311c-1.015,2.734 -1.804,4.617 -2.367,5.648c-0.75,1.39 -1.609,2.41 -2.578,3.058c-0.968,0.649 -2.125,0.973 -3.468,0.973c-0.813,-0 -1.719,-0.172 -2.719,-0.516Zm129.788,-26.529c-0,-4.062 0.418,-7.332 1.254,-9.808c0.836,-2.476 2.078,-4.386 3.726,-5.73c1.648,-1.344 3.722,-2.016 6.222,-2.016c1.844,0 3.461,0.371 4.851,1.114c1.391,0.742 2.539,1.812 3.446,3.21c0.906,1.399 1.617,3.102 2.132,5.109c0.516,2.008 0.774,4.715 0.774,8.121c-0,4.031 -0.414,7.284 -1.243,9.761c-0.828,2.476 -2.066,4.39 -3.714,5.742c-1.648,1.351 -3.73,2.027 -6.246,2.027c-3.312,-0 -5.913,-1.188 -7.804,-3.562c-2.265,-2.86 -3.398,-7.515 -3.398,-13.968Zm-52.965,17.53l2.039,-9.984l-3.961,0l0,-3.492l4.664,0l1.734,-8.507l-6.398,0l0,-3.492l7.101,0l2.039,-10.054l3.515,0l-2.038,10.054l7.382,0l2.039,-10.054l3.539,0l-2.039,10.054l4.054,0l0,3.492l-4.757,0l-1.758,8.507l6.515,0l0,3.492l-7.218,0l-2.039,9.984l-3.515,-0l2.015,-9.984l-7.359,0l-2.039,9.984l-3.515,-0Zm-54.207,-13.03c-0,-4.61 1.281,-8.023 3.843,-10.242c2.141,-1.844 4.75,-2.765 7.828,-2.765c3.421,-0 6.218,1.121 8.39,3.363c2.172,2.242 3.257,5.339 3.257,9.292c0,3.203 -0.48,5.722 -1.441,7.558c-0.961,1.836 -2.359,3.262 -4.195,4.277c-1.836,1.016 -3.839,1.523 -6.011,1.523c-3.484,0 -6.301,-1.117 -8.449,-3.351c-2.148,-2.234 -3.222,-5.453 -3.222,-9.655Zm-97.657,12.444l13.194,-34.357l4.898,-0l14.062,34.357l-5.18,-0l-4.007,-10.406l-14.367,0l-3.773,10.406l-4.827,-0Zm35.2,-0l0,-24.889l3.797,0l-0,3.773c0.968,-1.765 1.863,-2.929 2.683,-3.492c0.82,-0.562 1.723,-0.843 2.707,-0.843c1.422,-0 2.867,0.453 4.336,1.359l-1.453,3.914c-1.032,-0.61 -2.063,-0.914 -3.094,-0.914c-0.922,-0 -1.75,0.277 -2.484,0.832c-0.734,0.554 -1.258,1.324 -1.57,2.308c-0.469,1.5 -0.703,3.14 -0.703,4.922l-0,13.03l-4.219,-0Zm158.825,-0l-4.218,-0l-0,-26.881c-1.016,0.969 -2.348,1.937 -3.996,2.906c-1.649,0.969 -3.129,1.695 -4.441,2.18l-0,-4.078c2.359,-1.11 4.421,-2.453 6.187,-4.031c1.765,-1.578 3.015,-3.109 3.749,-4.594l2.719,0l-0,34.498Zm-68.105,-0l0,-24.889l3.797,0l-0,3.539c1.828,-2.734 4.468,-4.101 7.921,-4.101c1.5,-0 2.879,0.269 4.137,0.808c1.257,0.539 2.199,1.246 2.824,2.121c0.625,0.875 1.062,1.914 1.312,3.117c0.156,0.781 0.235,2.148 0.235,4.101l-0,15.304l-4.219,-0l0,-15.14c0,-1.718 -0.164,-3.003 -0.492,-3.855c-0.328,-0.851 -0.91,-1.531 -1.746,-2.039c-0.836,-0.508 -1.816,-0.761 -2.941,-0.761c-1.797,-0 -3.348,0.57 -4.652,1.71c-1.305,1.141 -1.957,3.305 -1.957,6.492l-0,13.593l-4.219,-0Zm-74.666,-0l-0,-34.357l4.218,-0l0,19.592l9.984,-10.124l5.46,0l-9.515,9.234l10.476,15.655l-5.202,-0l-8.226,-12.726l-2.977,2.859l0,9.867l-4.218,-0Zm207.243,-29.857l0,-4.055l22.241,0l-0,3.281c-2.188,2.328 -4.356,5.422 -6.504,9.281c-2.148,3.859 -3.808,7.827 -4.98,11.905c-0.844,2.875 -1.383,6.023 -1.617,9.445l-4.336,-0c0.047,-2.703 0.578,-5.968 1.594,-9.796c1.016,-3.828 2.472,-7.519 4.371,-11.074c1.898,-3.554 3.917,-6.55 6.058,-8.987l-16.827,-0Zm-26.693,-0l-0,-4.055l22.24,0l0,3.281c-2.187,2.328 -4.355,5.422 -6.503,9.281c-2.149,3.859 -3.809,7.827 -4.98,11.905c-0.844,2.875 -1.383,6.023 -1.617,9.445l-4.336,-0c0.047,-2.703 0.578,-5.968 1.594,-9.796c1.015,-3.828 2.472,-7.519 4.37,-11.074c1.899,-3.554 3.918,-6.55 6.059,-8.987l-16.827,-0Zm-22.639,12.913c-0,5.64 0.66,9.394 1.98,11.261c1.32,1.867 2.949,2.8 4.886,2.8c1.938,0 3.566,-0.937 4.887,-2.812c1.32,-1.875 1.98,-5.625 1.98,-11.249c-0,-5.656 -0.66,-9.414 -1.98,-11.273c-1.321,-1.859 -2.965,-2.789 -4.934,-2.789c-1.937,0 -3.484,0.821 -4.64,2.461c-1.453,2.094 -2.179,5.961 -2.179,11.601Zm-107.173,4.5c0,3.187 0.696,5.573 2.086,7.159c1.391,1.586 3.141,2.379 5.25,2.379c2.093,-0 3.835,-0.797 5.226,-2.391c1.391,-1.593 2.086,-4.023 2.086,-7.288c-0,-3.078 -0.699,-5.41 -2.098,-6.996c-1.398,-1.586 -3.136,-2.378 -5.214,-2.378c-2.109,-0 -3.859,0.789 -5.25,2.367c-1.39,1.578 -2.086,3.96 -2.086,7.148Zm56.129,-0.446l7.359,0l1.758,-8.507l-7.383,0l-1.734,8.507Zm-148.208,-1.218l11.648,-0l-3.586,-9.515c-1.094,-2.891 -1.906,-5.266 -2.437,-7.125c-0.438,2.203 -1.055,4.39 -1.852,6.562l-3.773,10.078Zm399.477,-42.547l-509.722,-0l-0,2.778l509.722,-0l0,-2.778Z" style="fill:#fff;"/></svg>