<?xml version="1.0" encoding="UTF-8" standalone="no"?><!DOCTYPE svg PUBLIC "-//W3C//DTD SVG 1.1//EN" "http://www.w3.org/Graphics/SVG/1.1/DTD/svg11.dtd"><svg width="100%" height="100%" viewBox="0 0 511 85" version="1.1" xmlns="http://www.w3.org/2000/svg" xmlns:xlink="http://www.w3.org/1999/xlink" xml:space="preserve" xmlns:serif="http://www.serif.com/" style="fill-rule:evenodd;clip-rule:evenodd;stroke-linejoin:round;stroke-miterlimit:2;"><path d="M510.123,81.25l-510.123,0l0,2.778l510.123,-0l0,-2.778Zm0,-74.306l-510.123,0l0,70.139l510.123,0l0,-70.139Zm-228.942,49.577l4.101,0.609c0.172,1.266 0.648,2.187 1.43,2.765c1.046,0.782 2.476,1.172 4.288,1.172c1.953,0 3.461,-0.39 4.524,-1.172c1.062,-0.781 1.781,-1.874 2.156,-3.281c0.218,-0.859 0.32,-2.663 0.304,-5.413c-1.843,2.171 -4.14,3.257 -6.89,3.257c-3.422,0 -6.07,-1.234 -7.945,-3.703c-1.874,-2.468 -2.812,-5.429 -2.812,-8.882c0,-2.375 0.43,-4.566 1.289,-6.573c0.859,-2.008 2.105,-3.559 3.738,-4.653c1.633,-1.093 3.551,-1.64 5.754,-1.64c2.937,-0 5.359,1.187 7.265,3.562l-0,-3l3.89,0l0,21.515c0,3.874 -0.394,6.62 -1.183,8.237c-0.789,1.617 -2.039,2.895 -3.75,3.832c-1.711,0.937 -3.816,1.406 -6.316,1.406c-2.969,0 -5.367,-0.668 -7.195,-2.004c-1.828,-1.335 -2.711,-3.347 -2.648,-6.034Zm-23.905,-5.883c-1.015,1.172 -2.152,2.113 -3.41,2.824c-1.257,0.711 -2.519,1.067 -3.785,1.067c-1.39,-0 -2.742,-0.407 -4.054,-1.219c-1.312,-0.812 -2.379,-2.062 -3.199,-3.75c-0.82,-1.687 -1.23,-3.539 -1.23,-5.554c-0,-2.484 0.636,-4.972 1.91,-7.464c1.273,-2.492 2.855,-4.363 4.745,-5.613c1.891,-1.25 3.727,-1.875 5.508,-1.875c1.359,-0 2.656,0.355 3.89,1.066c1.234,0.711 2.297,1.793 3.187,3.246l0.797,-3.632l4.195,-0l-3.374,15.725c-0.469,2.187 -0.704,3.398 -0.704,3.633c0,0.421 0.161,0.785 0.481,1.089c0.32,0.305 0.707,0.457 1.16,0.457c0.828,0 1.914,-0.476 3.258,-1.429c1.781,-1.25 3.191,-2.926 4.23,-5.027c1.039,-2.102 1.558,-4.27 1.558,-6.504c0,-2.609 -0.668,-5.046 -2.004,-7.312c-1.335,-2.265 -3.327,-4.078 -5.976,-5.437c-2.648,-1.359 -5.574,-2.039 -8.776,-2.039c-3.656,0 -6.996,0.856 -10.019,2.566c-3.023,1.711 -5.367,4.164 -7.031,7.359c-1.664,3.195 -2.496,6.621 -2.496,10.277c0,3.828 0.832,7.124 2.496,9.89c1.664,2.765 4.07,4.808 7.218,6.128c3.148,1.321 6.636,1.981 10.464,1.981c4.094,-0 7.523,-0.688 10.289,-2.063c2.765,-1.375 4.835,-3.046 6.21,-5.015l4.242,0c-0.797,1.641 -2.164,3.312 -4.101,5.015c-1.938,1.703 -4.242,3.051 -6.914,4.043c-2.671,0.992 -5.89,1.488 -9.655,1.488c-3.469,0 -6.668,-0.445 -9.597,-1.336c-2.93,-0.89 -5.426,-2.23 -7.488,-4.019c-2.062,-1.789 -3.617,-3.847 -4.664,-6.175c-1.312,-2.953 -1.968,-6.14 -1.968,-9.562c-0,-3.812 0.781,-7.445 2.343,-10.898c1.906,-4.234 4.613,-7.476 8.121,-9.726c3.507,-2.249 7.761,-3.374 12.76,-3.374c3.875,-0 7.355,0.793 10.441,2.378c3.086,1.586 5.519,3.949 7.3,7.09c1.516,2.703 2.274,5.64 2.274,8.812c-0,4.53 -1.594,8.554 -4.781,12.069c-2.844,3.156 -5.953,4.734 -9.328,4.734c-1.078,0 -1.949,-0.164 -2.613,-0.492c-0.664,-0.328 -1.152,-0.797 -1.465,-1.406c-0.203,-0.391 -0.351,-1.063 -0.445,-2.016Zm-173.636,13.406l-0.469,-3.961c0.922,0.25 1.727,0.375 2.414,0.375c0.938,-0 1.688,-0.156 2.25,-0.469c0.562,-0.312 1.023,-0.75 1.383,-1.312c0.265,-0.422 0.695,-1.469 1.289,-3.141c0.078,-0.234 0.203,-0.578 0.375,-1.031l-9.445,-24.936l4.547,0l5.179,14.414c0.672,1.827 1.273,3.749 1.804,5.765c0.485,-1.938 1.063,-3.828 1.735,-5.672l5.32,-14.507l4.218,0l-9.468,25.311c-1.016,2.734 -1.805,4.617 -2.367,5.648c-0.75,1.391 -1.609,2.41 -2.578,3.059c-0.969,0.648 -2.125,0.972 -3.468,0.972c-0.813,0 -1.719,-0.172 -2.719,-0.515Zm281.23,-12.656c-1.562,1.328 -3.066,2.266 -4.511,2.813c-1.445,0.546 -2.996,0.82 -4.652,0.82c-2.734,-0 -4.836,-0.668 -6.304,-2.004c-1.469,-1.336 -2.203,-3.043 -2.203,-5.121c-0,-1.218 0.277,-2.332 0.832,-3.339c0.554,-1.008 1.281,-1.817 2.179,-2.426c0.898,-0.609 1.91,-1.07 3.035,-1.383c0.828,-0.218 2.078,-0.429 3.75,-0.632c3.406,-0.407 5.913,-0.891 7.523,-1.453c0.015,-0.579 0.023,-0.946 0.023,-1.102c0,-1.719 -0.398,-2.929 -1.195,-3.632c-1.078,-0.954 -2.68,-1.43 -4.804,-1.43c-1.985,-0 -3.449,0.348 -4.395,1.043c-0.945,0.695 -1.644,1.925 -2.097,3.691l-4.125,-0.562c0.375,-1.766 0.992,-3.192 1.852,-4.278c0.859,-1.085 2.101,-1.921 3.726,-2.507c1.625,-0.586 3.507,-0.879 5.648,-0.879c2.125,-0 3.851,0.25 5.179,0.75c1.328,0.5 2.305,1.129 2.93,1.887c0.625,0.757 1.062,1.714 1.312,2.87c0.141,0.719 0.211,2.016 0.211,3.891l-0,5.624c-0,3.922 0.09,6.402 0.269,7.441c0.18,1.039 0.536,2.035 1.067,2.988l-4.406,0c-0.438,-0.875 -0.719,-1.898 -0.844,-3.07Zm61.355,-6.046l4.148,0.539c-0.453,2.859 -1.613,5.097 -3.48,6.714c-1.867,1.617 -4.16,2.426 -6.878,2.426c-3.406,-0 -6.144,-1.113 -8.215,-3.34c-2.07,-2.226 -3.105,-5.417 -3.105,-9.573c0,-2.688 0.446,-5.039 1.336,-7.055c0.891,-2.015 2.246,-3.527 4.066,-4.534c1.82,-1.008 3.801,-1.512 5.941,-1.512c2.703,-0 4.914,0.684 6.633,2.051c1.718,1.367 2.82,3.308 3.304,5.823l-4.101,0.633c-0.391,-1.672 -1.082,-2.929 -2.074,-3.773c-0.992,-0.844 -2.192,-1.266 -3.598,-1.266c-2.125,0 -3.851,0.762 -5.179,2.285c-1.328,1.524 -1.992,3.934 -1.992,7.23c-0,3.344 0.64,5.773 1.922,7.289c1.281,1.516 2.953,2.273 5.015,2.273c1.656,0 3.039,-0.507 4.148,-1.523c1.109,-1.016 1.812,-2.578 2.109,-4.687Zm-319.969,-3.328c-0,-4.609 1.281,-8.023 3.843,-10.242c2.141,-1.843 4.75,-2.765 7.828,-2.765c3.421,-0 6.218,1.121 8.39,3.363c2.171,2.242 3.257,5.34 3.257,9.292c0,3.203 -0.48,5.723 -1.441,7.558c-0.961,1.836 -2.359,3.262 -4.195,4.277c-1.836,1.016 -3.84,1.524 -6.011,1.524c-3.485,-0 -6.301,-1.117 -8.449,-3.352c-2.148,-2.234 -3.222,-5.452 -3.222,-9.655Zm-72.863,9.374c-1.562,1.328 -3.066,2.266 -4.511,2.813c-1.445,0.546 -2.996,0.82 -4.652,0.82c-2.734,-0 -4.836,-0.668 -6.304,-2.004c-1.469,-1.336 -2.203,-3.043 -2.203,-5.121c-0,-1.218 0.277,-2.332 0.832,-3.339c0.554,-1.008 1.281,-1.817 2.179,-2.426c0.899,-0.609 1.91,-1.07 3.035,-1.383c0.828,-0.218 2.078,-0.429 3.75,-0.632c3.406,-0.407 5.914,-0.891 7.523,-1.453c0.016,-0.579 0.023,-0.946 0.023,-1.102c0,-1.719 -0.398,-2.929 -1.195,-3.632c-1.078,-0.954 -2.679,-1.43 -4.804,-1.43c-1.984,-0 -3.449,0.348 -4.394,1.043c-0.946,0.695 -1.645,1.925 -2.098,3.691l-4.125,-0.562c0.375,-1.766 0.992,-3.192 1.852,-4.278c0.859,-1.085 2.101,-1.921 3.726,-2.507c1.625,-0.586 3.508,-0.879 5.648,-0.879c2.125,-0 3.851,0.25 5.179,0.75c1.328,0.5 2.305,1.129 2.93,1.887c0.625,0.757 1.062,1.714 1.312,2.87c0.141,0.719 0.211,2.016 0.211,3.891l0,5.624c0,3.922 0.09,6.402 0.27,7.441c0.179,1.039 0.535,2.035 1.066,2.988l-4.406,0c-0.437,-0.875 -0.719,-1.898 -0.844,-3.07Zm168.856,-4.945l4.359,0.539c-0.688,2.547 -1.961,4.523 -3.82,5.93c-1.859,1.406 -4.234,2.109 -7.125,2.109c-3.64,-0 -6.527,-1.121 -8.659,-3.363c-2.133,-2.242 -3.199,-5.387 -3.199,-9.433c-0,-4.187 1.078,-7.437 3.234,-9.75c2.156,-2.312 4.953,-3.468 8.39,-3.468c3.328,-0 6.046,1.133 8.156,3.398c2.109,2.266 3.163,5.453 3.163,9.562c0,0.25 -0.007,0.625 -0.023,1.125l-18.561,-0c0.156,2.734 0.929,4.828 2.32,6.281c1.391,1.453 3.125,2.179 5.203,2.179c1.547,0 2.867,-0.406 3.96,-1.218c1.094,-0.813 1.961,-2.11 2.602,-3.891Zm230.163,-4.429c0,-4.609 1.281,-8.023 3.844,-10.242c2.14,-1.843 4.749,-2.765 7.827,-2.765c3.422,-0 6.219,1.121 8.39,3.363c2.172,2.242 3.258,5.34 3.258,9.292c0,3.203 -0.48,5.723 -1.441,7.558c-0.961,1.836 -2.36,3.262 -4.195,4.277c-1.836,1.016 -3.84,1.524 -6.012,1.524c-3.484,-0 -6.3,-1.117 -8.448,-3.352c-2.149,-2.234 -3.223,-5.452 -3.223,-9.655Zm-209.938,12.444l-0,-34.357l4.218,0l0,34.357l-4.218,0Zm-87.955,0l0,-24.889l3.797,0l-0,3.539c1.828,-2.734 4.468,-4.101 7.921,-4.101c1.5,-0 2.879,0.27 4.137,0.809c1.257,0.539 2.199,1.246 2.824,2.12c0.625,0.875 1.062,1.914 1.312,3.117c0.156,0.782 0.234,2.149 0.234,4.102l0,15.303l-4.218,0l-0,-15.139c-0,-1.719 -0.164,-3.004 -0.492,-3.855c-0.328,-0.852 -0.91,-1.532 -1.746,-2.039c-0.836,-0.508 -1.817,-0.762 -2.941,-0.762c-1.797,-0 -3.348,0.57 -4.652,1.711c-1.305,1.14 -1.957,3.304 -1.957,6.492l-0,13.592l-4.219,0Zm-74.666,0l-0,-34.357l4.218,0l0,19.593l9.984,-10.125l5.46,0l-9.515,9.234l10.476,15.655l-5.203,0l-8.226,-12.725l-2.976,2.859l0,9.866l-4.218,0Zm108.273,0l-9.468,-24.889l4.453,0l5.343,14.906c0.578,1.609 1.11,3.281 1.594,5.015c0.375,-1.312 0.898,-2.89 1.57,-4.734l5.531,-15.187l4.336,0l-9.422,24.889l-3.937,0Zm-124.327,0l0,-24.889l3.797,0l-0,3.774c0.968,-1.766 1.863,-2.93 2.683,-3.492c0.82,-0.563 1.723,-0.844 2.707,-0.844c1.422,-0 2.867,0.453 4.335,1.359l-1.453,3.914c-1.031,-0.609 -2.062,-0.914 -3.093,-0.914c-0.922,0 -1.75,0.277 -2.484,0.832c-0.735,0.555 -1.258,1.324 -1.57,2.308c-0.469,1.5 -0.704,3.141 -0.704,4.922l0,13.03l-4.218,0Zm168.129,0l-0,-24.889l4.218,0l0,24.889l-4.218,0Zm96.72,0l-0,-24.889l3.773,0l-0,3.492c0.781,-1.218 1.82,-2.199 3.117,-2.941c1.297,-0.742 2.773,-1.113 4.429,-1.113c1.844,-0 3.355,0.383 4.535,1.148c1.18,0.766 2.012,1.836 2.496,3.211c1.968,-2.906 4.531,-4.359 7.687,-4.359c2.468,-0 4.367,0.684 5.695,2.051c1.328,1.367 1.992,3.472 1.992,6.316l-0,17.084l-4.195,0l-0,-15.678c-0,-1.688 -0.137,-2.902 -0.41,-3.645c-0.274,-0.742 -0.77,-1.339 -1.489,-1.792c-0.718,-0.453 -1.562,-0.68 -2.531,-0.68c-1.749,-0 -3.203,0.582 -4.359,1.746c-1.156,1.164 -1.734,3.027 -1.734,5.589l0,14.46l-4.218,0l-0,-16.17c-0,-1.875 -0.344,-3.281 -1.032,-4.219c-0.687,-0.937 -1.812,-1.406 -3.374,-1.406c-1.188,-0 -2.285,0.312 -3.293,0.937c-1.008,0.625 -1.738,1.539 -2.191,2.742c-0.453,1.203 -0.68,2.938 -0.68,5.203l0,12.913l-4.218,0Zm66.698,0l0,-24.889l4.218,0l0,24.889l-4.218,0Zm85.33,0l-0,-24.889l3.773,0l0,3.492c0.781,-1.218 1.82,-2.199 3.117,-2.941c1.297,-0.742 2.773,-1.113 4.429,-1.113c1.844,-0 3.356,0.383 4.535,1.148c1.18,0.766 2.012,1.836 2.496,3.211c1.969,-2.906 4.531,-4.359 7.687,-4.359c2.469,-0 4.367,0.684 5.695,2.051c1.328,1.367 1.992,3.472 1.992,6.316l0,17.084l-4.195,0l0,-15.678c0,-1.688 -0.137,-2.902 -0.41,-3.645c-0.273,-0.742 -0.769,-1.339 -1.488,-1.792c-0.719,-0.453 -1.563,-0.68 -2.531,-0.68c-1.75,-0 -3.203,0.582 -4.359,1.746c-1.156,1.164 -1.735,3.027 -1.735,5.589l0,14.46l-4.218,0l-0,-16.17c-0,-1.875 -0.344,-3.281 -1.031,-4.219c-0.688,-0.937 -1.813,-1.406 -3.375,-1.406c-1.187,-0 -2.285,0.312 -3.293,0.937c-1.007,0.625 -1.738,1.539 -2.191,2.742c-0.453,1.203 -0.68,2.938 -0.68,5.203l0,12.913l-4.218,0Zm-62.832,0l0,-4.804l4.805,-0l-0,4.804l-4.805,0Zm-11.952,0l0,-34.357l4.219,0l-0,34.357l-4.219,0Zm-352.85,-12.491c-1.531,0.625 -3.828,1.156 -6.89,1.594c-1.734,0.25 -2.961,0.531 -3.68,0.843c-0.718,0.313 -1.273,0.77 -1.664,1.371c-0.39,0.602 -0.585,1.27 -0.585,2.004c-0,1.125 0.425,2.062 1.277,2.812c0.851,0.75 2.097,1.125 3.738,1.125c1.625,0 3.07,-0.355 4.335,-1.066c1.266,-0.711 2.196,-1.683 2.789,-2.918c0.453,-0.953 0.68,-2.359 0.68,-4.218l-0,-1.547Zm331.477,0c-1.531,0.625 -3.828,1.156 -6.89,1.594c-1.735,0.25 -2.961,0.531 -3.68,0.843c-0.719,0.313 -1.273,0.77 -1.664,1.371c-0.39,0.602 -0.586,1.27 -0.586,2.004c0,1.125 0.426,2.062 1.278,2.812c0.851,0.75 2.097,1.125 3.738,1.125c1.624,0 3.07,-0.355 4.335,-1.066c1.266,-0.711 2.195,-1.683 2.789,-2.918c0.453,-0.953 0.68,-2.359 0.68,-4.218l-0,-1.547Zm-253.928,0.047c0,3.187 0.695,5.574 2.086,7.16c1.391,1.585 3.14,2.378 5.25,2.378c2.093,0 3.835,-0.797 5.226,-2.39c1.39,-1.594 2.086,-4.023 2.086,-7.289c-0,-3.078 -0.7,-5.41 -2.098,-6.995c-1.398,-1.586 -3.136,-2.379 -5.214,-2.379c-2.11,-0 -3.859,0.789 -5.25,2.367c-1.391,1.578 -2.086,3.961 -2.086,7.148Zm326.157,-0c-0,3.187 0.695,5.574 2.086,7.16c1.39,1.585 3.14,2.378 5.249,2.378c2.094,0 3.836,-0.797 5.227,-2.39c1.39,-1.594 2.085,-4.023 2.085,-7.289c0,-3.078 -0.699,-5.41 -2.097,-6.995c-1.398,-1.586 -3.137,-2.379 -5.215,-2.379c-2.109,-0 -3.859,0.789 -5.249,2.367c-1.391,1.578 -2.086,3.961 -2.086,7.148Zm-190.815,2.273c0,2.141 0.508,3.805 1.524,4.992c1.015,1.187 2.179,1.781 3.492,1.781c0.874,0 1.796,-0.262 2.765,-0.785c0.969,-0.523 1.894,-1.301 2.777,-2.332c0.883,-1.031 1.605,-2.34 2.168,-3.925c0.562,-1.586 0.844,-3.176 0.844,-4.77c-0,-2.124 -0.528,-3.773 -1.582,-4.945c-1.055,-1.171 -2.34,-1.757 -3.856,-1.757c-0.999,-0 -1.941,0.254 -2.824,0.761c-0.882,0.508 -1.738,1.325 -2.566,2.45c-0.828,1.124 -1.492,2.492 -1.992,4.101c-0.5,1.609 -0.75,3.086 -0.75,4.429Zm38.74,-2.718c-0,3.265 0.648,5.648 1.945,7.148c1.297,1.499 2.922,2.249 4.875,2.249c1.937,0 3.562,-0.746 4.874,-2.238c1.313,-1.492 1.969,-3.832 1.969,-7.019c-0,-3.046 -0.676,-5.343 -2.027,-6.89c-1.352,-1.547 -2.981,-2.32 -4.887,-2.32c-1.875,-0 -3.468,0.762 -4.781,2.285c-1.312,1.523 -1.968,3.785 -1.968,6.785Zm-96.275,-1.946l13.898,0c-0.188,-2.093 -0.719,-3.663 -1.594,-4.71c-1.344,-1.625 -3.086,-2.438 -5.226,-2.438c-1.938,0 -3.566,0.649 -4.887,1.946c-1.32,1.296 -2.05,3.031 -2.191,5.202Zm23.53,-14.67l-0,-4.852l4.218,0l0,4.852l-4.218,-0Zm163.418,-0l0,-4.852l4.218,0l0,4.852l-4.218,-0Zm134.777,-24.953l-510.123,-0l-0,2.778l510.123,-0l0,-2.778Z" style="fill:#fff;"/></svg>